<?xml version="1.0" standalone="no"?>
<!DOCTYPE svg PUBLIC "-//W3C//DTD SVG 1.1//EN" "http://www.w3.org/Graphics/SVG/1.1/DTD/svg11.dtd" >
<svg xmlns="http://www.w3.org/2000/svg">
<metadata></metadata>
<defs>
<font id="BaramondRoman" horiz-adv-x="1024" >
<font-face units-per-em="2048" ascent="1638" descent="-410" />
<missing-glyph horiz-adv-x="512" />
<glyph horiz-adv-x="0" />
<glyph horiz-adv-x="2048" />
<glyph unicode="&#xd;" horiz-adv-x="512" />
<glyph unicode=" "  horiz-adv-x="512" />
<glyph unicode="&#x09;" horiz-adv-x="512" />
<glyph unicode="&#xa0;" horiz-adv-x="512" />
<glyph unicode="!" horiz-adv-x="688" d="M197 102.5q0 51.5 36.5 88t88.5 36.5t89.5 -36.5t37.5 -88t-38 -89.5t-89 -38t-88 38t-37 89.5zM211 1270q0 72 31.5 111.5t83.5 39.5q123 0 123 -157q0 -71 -45 -356.5t-66 -495.5h-39q-9 213 -48.5 499.5t-39.5 358.5z" />
<glyph unicode="&#x22;" horiz-adv-x="678" d="M90 1382.5q0 27.5 22 53.5t62.5 26t63 -26t22.5 -74l-70 -498h-32l-64 457q-4 34 -4 61.5zM418 1360q0 49 22.5 75.5t63.5 26.5q84 0 84 -100q0 -23 -2 -41l-68 -457h-31l-65 457z" />
<glyph unicode="#" horiz-adv-x="1575" d="M104 467l43 115h322l100 286h-348l43 117h348l166 471h133l-168 -471h287l168 471h131l-166 -471h307l-40 -117h-310l-100 -286h332l-43 -115h-330l-166 -469h-133l166 469h-287l-166 -469h-131l166 469h-324zM600 582h289l102 286h-291z" />
<glyph unicode="$" d="M74 311h51q44 -138 125 -201t221 -69v575q-377 111 -377 383q0 146 106.5 247.5t276.5 115.5v145h62v-145q159 -4 321 -78q-2 -14 -2 -41l6 -172v-37h-49q-11 131 -82 201t-194 71v-528q205 -68 299 -163.5t94 -250t-109.5 -264.5t-290.5 -120v-228h-61v227 q-185 4 -369 105v12q0 56 -28 215zM248 1066.5q0 -104.5 55 -167.5t174 -98v505q-110 -9 -169.5 -72t-59.5 -167.5zM532 592l1 -549q112 5 174.5 78.5t62.5 189t-55 178t-183 103.5z" />
<glyph unicode="%" horiz-adv-x="1835" d="M113 1091.5q0 141.5 94 235.5t237 94t233.5 -85.5t90.5 -225t-100.5 -242t-239 -102.5t-227 92t-88.5 233.5zM254 1087q0 -132 49 -203t133.5 -71t135.5 80t51 209.5t-49.5 201.5t-135 72t-135 -78.5t-49.5 -210.5zM453 -59l786 1525h88l-786 -1525h-88zM1047 304.5 q0 142.5 95 237.5t237.5 95t233.5 -86t91 -225t-100 -241.5t-239.5 -102.5t-228.5 90t-89 232.5zM1190 301q0 -132 48.5 -202t133 -70t134.5 79.5t50 209.5t-48.5 202t-133.5 72t-134.5 -79.5t-49.5 -211.5z" />
<glyph unicode="&#x26;" horiz-adv-x="1698" d="M109 341q0 146 76.5 249.5t248.5 204.5q-180 138 -180 284q0 112 86.5 193.5t204 81.5t193 -69t75.5 -171q0 -62 -33 -110t-168 -144q163 -120 252 -206t135 -165q218 266 218 381q0 59 -39.5 87.5t-122.5 31.5v45q18 2 47 2l203 -14l251 8v-51h-6q-63 0 -114 -27.5 t-109 -93.5q-1 -1 -93.5 -142t-199.5 -280q105 -201 174.5 -267.5t159.5 -66.5q125 0 217 123l35 -22q-124 -228 -340 -228q-128 0 -200 65t-144 259q-169 -202 -259 -258.5t-198 -56.5q-160 0 -265 105.5t-105 251.5zM266 442q0 -129 88 -220t211 -91q82 0 163.5 53.5 t176.5 169.5q-93 200 -424 408q-215 -127 -215 -320zM381 1132q0 -65 45.5 -123t144.5 -120q63 48 89 97.5t26 124.5t-46 128t-109.5 53t-106.5 -47.5t-43 -112.5z" />
<glyph unicode="'" horiz-adv-x="348" d="M90 1360q0 102 84 102q41 0 63.5 -26t22.5 -74l-70 -498h-32l-66 457q-2 16 -2 39z" />
<glyph unicode="(" horiz-adv-x="821" d="M260 436q0 602 434 1024l54 -51q-188 -200 -277.5 -437.5t-89.5 -523.5t85.5 -506.5t268.5 -418.5l-45 -49q-430 394 -430 962z" />
<glyph unicode=")" horiz-adv-x="821" d="M70 -475q186 199 276 437.5t90 524t-85.5 506t-268.5 418.5l45 49q430 -396 430 -954q0 -610 -436 -1032z" />
<glyph unicode="*" d="M129 905q0 49 66.5 78t222.5 45q-137 -192 -215 -192q-32 0 -53 19.5t-21 49.5zM154 1266q0 29 19.5 50t52.5 21q73 0 208 -204q-280 33 -280 133zM496 790q0 68 20 199q133 -169 133 -237q0 -35 -21.5 -56.5t-56.5 -21.5t-55 35.5t-20 80.5zM508 1294q0 168 90 168 q33 0 52.5 -20t19.5 -56q0 -73 -154 -233zM569 1075q176 58 223.5 58t74 -21t26.5 -55.5t-22 -54t-59 -19.5q-77 0 -243 92z" />
<glyph unicode="+" horiz-adv-x="1706" d="M254 553v117h541v551h118v-551h539v-117h-539v-553h-118v553h-541z" />
<glyph unicode="," horiz-adv-x="512" d="M86 -260q102 39 146 83.5t44 93.5q0 85 -71 134q-117 28 -117 107q0 44 33.5 72t101 28t121 -67t53.5 -174.5t-79 -196.5t-216 -133z" />
<glyph unicode="-" horiz-adv-x="750" d="M94 385v139h557v-139h-557z" />
<glyph unicode="." horiz-adv-x="512" d="M115 102.5q0 50.5 37.5 87.5t89.5 37t88.5 -36t36.5 -88.5t-37 -90t-88 -37.5t-89 38.5t-38 89z" />
<glyph unicode="/" horiz-adv-x="842" d="M0 -190l659 1611h95l-660 -1611h-94z" />
<glyph unicode="0" d="M104 672.5q0 336.5 105.5 515t301.5 178.5t302.5 -180t106.5 -512.5t-106.5 -512t-303 -179.5t-301.5 177t-105 513.5zM193 678q0 -251 82 -383.5t237.5 -132.5t237 132t81.5 384.5t-82 386t-236.5 133.5t-237 -134.5t-82.5 -385.5z" />
<glyph unicode="1" d="M201 1090l133 88q120 78 215 186l61 -4v-1145q0 -93 37 -127t135 -37v-43q-70 -4 -118 -4l-162 2l-168 -6h-64v51h19q85 0 121 30t36 99v942q0 45 -9.5 45t-25.5 -9.5t-18 -10.5l-164 -100z" />
<glyph unicode="2" d="M49 3v67q323 298 469 511t146 384q0 115 -62.5 185.5t-163.5 70.5q-159 0 -288 -197l-46 25q166 315 428 315q143 0 227.5 -89t84.5 -243.5t-126.5 -337.5t-496.5 -530h316q165 0 381 8l-105 -172l-364 4l-328 -6q-37 0 -72 5z" />
<glyph unicode="3" d="M84 89q0 43 20.5 64t44.5 21q44 0 57.5 -10t25.5 -19q96 -71 159 -71q120 0 206.5 103.5t86.5 241.5t-61.5 215t-159.5 77q-45 0 -90 -13l-21 41l135 123q107 99 107 185.5t-56.5 137t-157.5 50.5t-206 -109l-35 27q129 215 340 215q114 0 187 -62t73 -157 q0 -121 -149 -266v-13q270 -113 270 -362q0 -203 -149 -348q-86 -85 -199 -132.5t-215 -47.5t-157.5 33t-55.5 76z" />
<glyph unicode="4" d="M82 439v50q134 203 285.5 418.5t162.5 233.5l152 223l66 -6q-17 -189 -17 -459v-326h199v-129h-199v-444h-151v444h-228q-50 0 -270 -5zM252 614q0 -41 76 -41h252v545l-314 -469q-14 -23 -14 -35z" />
<glyph unicode="5" d="M113 93q0 81 82 81q40 0 87 -37q78 -61 146 -61q114 0 200.5 102.5t86.5 241.5t-82 224t-215 85q-87 0 -207 -53l-31 22q60 391 82 648h232q234 0 311 4l-72 -156q-22 -2 -112 -2l-183 2h-63q-38 0 -53 -16t-19 -74l-16 -225l174 12q190 0 308 -117t118 -305 q0 -203 -193 -354q-166 -133 -366 -133q-95 0 -155 34.5t-60 76.5z" />
<glyph unicode="6" d="M113 496q0 275 157.5 506.5t438.5 365.5l34 -53q-396 -282 -434 -707q133 131 287 131t247 -97.5t93 -263t-114.5 -282t-293.5 -116.5t-297 143t-118 373zM293 416q0 -167 68.5 -268t172.5 -101t164 80t60 218.5t-64 222t-171.5 83.5t-213.5 -102q-16 -80 -16 -133z" />
<glyph unicode="7" d="M133 1192l66 154h790v-23q-32 -91 -243.5 -473t-503.5 -868l-95 57q629 1037 629 1124q0 15 -28 21t-127 6h-160l-201 -4q-69 0 -127 6z" />
<glyph unicode="8" d="M141 285q0 201 275 368q-246 178 -246 367q0 143 107.5 243.5t258 100.5t244.5 -85.5t94 -213.5q0 -174 -268 -346q275 -181 275 -383q0 -146 -113 -250t-267.5 -104t-257 89t-102.5 214zM281 326q0 -124 67 -202.5t165 -78.5t158 63t60 161.5t-63.5 182t-210.5 175.5 q-176 -111 -176 -301zM305 1086q0 -173 258 -338q92 60 133 132.5t41 176t-62.5 172.5t-156 69t-153.5 -61.5t-60 -150.5z" />
<glyph unicode="9" d="M90 961q0 163 118 283t294.5 120t293.5 -142t117 -366q0 -276 -171.5 -510t-485.5 -385l-35 51q226 152 353.5 340.5t146.5 397.5q-128 -144 -287 -144t-251.5 96t-92.5 259zM266 1004.5q0 -132.5 69 -223.5t175 -91t215 133q8 48 8 95q0 182 -63 281t-170 99 t-170.5 -80.5t-63.5 -213z" />
<glyph unicode=":" horiz-adv-x="559" d="M135 102.5q0 51.5 36.5 88t88.5 36.5t88.5 -36t36.5 -88.5t-37 -90t-87.5 -37.5t-88 38t-37.5 89.5zM135 746q0 51 37 88.5t88.5 37.5t88 -37t36.5 -89t-37 -88.5t-88 -36.5t-88 37t-37 88z" />
<glyph unicode=";" horiz-adv-x="559" d="M115 -260q102 39 146 83.5t44 93.5q0 86 -72 134q-116 28 -116 107q0 44 33.5 72t101 28t121 -67t53.5 -174.5t-79 -196.5t-216 -133zM152 768q0 51 36.5 88t88.5 37t89 -36.5t37 -88t-37.5 -88.5t-88.5 -37t-88 37t-37 88z" />
<glyph unicode="&#x3c;" horiz-adv-x="1706" d="M264 559v103l1178 483v-127l-1000 -408l1000 -405v-129z" />
<glyph unicode="=" horiz-adv-x="1706" d="M254 360v117h1198v-117h-1198zM254 743v117h1198v-117h-1198z" />
<glyph unicode="&#x3e;" horiz-adv-x="1706" d="M264 76v129l1000 405l-1000 408v127l1178 -483v-103z" />
<glyph unicode="?" horiz-adv-x="909" d="M172 1322q0 45 31.5 72t92 27t131 -42t132.5 -124t102.5 -196t40.5 -212.5t-50.5 -155.5t-213.5 -111q-40 -14 -57 -38.5t-21 -75.5l-8 -97h-51l-12 352q165 36 242 99.5t77 159t-58 163t-161 94.5q-50 -8 -104 -8t-83.5 24t-29.5 69zM197 102q0 52 36.5 88.5t88 36.5 t89.5 -37t38 -88t-38 -89t-89.5 -38t-88 37.5t-36.5 89.5z" />
<glyph unicode="@" horiz-adv-x="2019" d="M145 537q0 204 86 381t250 313q263 221 622.5 221t566 -187t206.5 -499q0 -157 -58 -297t-163 -236q-118 -108 -258 -108q-195 0 -207 211q-123 -211 -309 -211q-125 0 -201 92t-76 222q0 252 187 431q65 64 144 100t155 36q176 0 221 -195l53 180h143l-170 -610 q0 -2 -9 -33t-9 -77t25.5 -73.5t63.5 -27.5q84 0 169 66q122 90 187 231t65 298t-50 269t-147 197q-195 172 -489 172q-375 0 -617 -234q-264 -256 -264 -663q0 -175 57 -304.5t176 -230.5q236 -200 575 -200t624 206l30 -36q-299 -222 -655 -222q-377 0 -616 185 q-308 230 -308 633zM750 378q0 -96 40.5 -150t107.5 -54q131 0 243 178q57 94 91 202.5t34 199.5t-47.5 151t-111 60t-108.5 -31t-104.5 -119.5t-102 -214.5t-42.5 -222z" />
<glyph unicode="A" horiz-adv-x="1559" d="M37 4v61q101 6 142.5 28.5t70.5 78.5q42 85 139 393q206 619 246 778l6 21q5 20 31.5 43t99.5 68l27 -11q137 -352 281 -723.5t178 -456.5q65 -161 106 -192q33 -23 129 -31v-59l-61 -2l-185 10l-213 -10q-47 0 -75 2l-1 61h41q61 2 87 19.5t26 45.5q0 49 -20 99 l-131 332q-92 0 -482 10l-78 -243q-36 -120 -36 -166q0 -95 161 -99v-57h-37l-237 6q-31 0 -215 -6zM508 649l412 -2q-129 363 -230 580q-23 -77 -86.5 -270.5t-95.5 -307.5z" />
<glyph unicode="B" horiz-adv-x="1305" d="M63 1376v51h60l186 -2l287 9q238 0 370 -90t132 -252q0 -226 -305 -293v-11q200 -28 309.5 -130.5t109.5 -269.5t-140 -276.5t-372 -109.5l-278 12l-324 -12h-28v55q5 1 70 10t106 31q27 16 38 50.5t11 140.5v944q0 73 -47 103t-185 40zM469 289q0 -131 41.5 -173 t178 -42t230 88.5t93.5 243.5t-105.5 246t-296.5 91q-65 0 -141 -12v-442zM469 805q24 -4 59 -4q182 0 280.5 73.5t98.5 208t-80.5 212t-220.5 77.5q-80 0 -108.5 -24.5t-28.5 -94.5v-448z" />
<glyph unicode="C" horiz-adv-x="1589" d="M94 695q0 223 116 398.5t298.5 270t411.5 94.5q263 0 481 -115q2 -49 13 -145.5t13 -142.5l-51 -8q-41 158 -160.5 250t-267.5 92q-283 0 -448 -183q-88 -96 -135.5 -220.5t-47.5 -264.5q0 -290 179 -485q173 -193 465 -193q178 0 290.5 83t149.5 243l59 -15 q-3 -40 -24 -134.5t-29 -145.5q-222 -111 -471 -111q-372 0 -614 236q-110 108 -169 242t-59 254z" />
<glyph unicode="D" horiz-adv-x="1686" d="M66 1348v55q379 55 593 55q635 0 841 -416q71 -145 71 -315q0 -329 -220.5 -528t-584.5 -199l-334 10l-364 -10v61q148 11 187.5 43.5t39.5 124.5v1000q0 69 -33 96t-119 27q-17 0 -45 -2t-32 -2zM479 276q0 -98 70.5 -150t202.5 -52q280 0 445 178t165 483 q0 269 -152 436q-189 213 -489 213q-145 0 -193.5 -31.5t-48.5 -121.5v-955z" />
<glyph unicode="E" horiz-adv-x="1305" d="M63 -4l1 55q144 2 187.5 39t43.5 150v995q0 71 -50.5 102.5t-168.5 34.5v49q61 4 110 4l246 -6l215 2h377l100 2q2 -18 2 -57l-6 -240h-57v13q0 131 -61.5 177t-319.5 46q-132 0 -167.5 -35.5t-35.5 -191.5v-342q84 -7 121 -7l70 2q142 0 191 34.5t67 127.5h51 q-8 -140 -8 -430h-53q-8 118 -45 155.5t-195 37.5h-45q-47 0 -148 -4h-6v-416q0 -134 44 -177.5t179 -43.5h244q88 0 134.5 38.5t117.5 192.5l57 -10l-84 -289q-66 -4 -186 -4l-502 10l-393 -14h-27z" />
<glyph unicode="F" horiz-adv-x="1270" d="M63 -12v59q20 4 95.5 17t97.5 38q39 45 39 291v543q0 216 -9.5 293.5t-29.5 96.5q-37 34 -193 34l1 55q26 2 129 2l239 -2l221 2h144l245 6q46 0 105 -4l2 -291h-57q-15 140 -62 185t-196 45h-183q-101 0 -141.5 -28.5t-40.5 -96.5v-446q96 -7 170 -7h49 q209 0 257.5 35.5t49.5 138.5h51l-6 -278q0 -66 4 -174h-53q-9 120 -62 166.5t-188 46.5l-272 -4v-514q0 -80 45 -109t172 -29v-61q-24 -2 -70 -2l-241 8z" />
<glyph unicode="G" horiz-adv-x="1636" d="M94 694q0 324 238 541q233 215 590 215q261 0 471 -111q14 -203 14 -249v-21l-57 4q-42 148 -149 226.5t-267 78.5q-170 0 -316 -92q-301 -190 -301 -569q0 -303 187 -498q168 -176 403 -176q163 0 249.5 61.5t86.5 178.5v133q0 76 -54 108.5t-183 32.5q-31 0 -47 -2 l-1 57q44 4 181 4h430v-48q-100 -4 -134 -35t-34 -121v-119q0 -105 12 -201q-199 -121 -475 -121q-360 0 -590 183q-123 98 -188.5 239t-65.5 301z" />
<glyph unicode="H" horiz-adv-x="1808" d="M90 65q125 4 163 33t38 133v992q0 75 -42 104.5t-159 34.5v59h33l244 -8l323 8v-61q-135 -7 -175 -31t-40 -90v-434h856v436q0 63 -37.5 88.5t-144.5 32.5v59l278 -10l289 10v-61q-106 -5 -153 -32.5t-47 -84.5v-1020q0 -93 34 -125t133 -32h27v-61q-26 -3 -92 -3l-191 4 l-206 -4q-58 0 -90 2l-1 62q134 6 167.5 31.5t33.5 115.5v502h-856v-508q0 -86 30 -113.5t126 -27.5h35l-1 -62q-36 -2 -98 -2l-200 4l-191 -4q-53 0 -85 2z" />
<glyph unicode="I" horiz-adv-x="807" d="M94 65q133 4 172 33t39 133v992q0 75 -43 104.5t-165 34.5l-1 59h35l299 -8h35l262 8v-61q-149 -7 -191 -31.5t-42 -89.5v-1032q0 -85 32 -113t136 -28h38v-62q-38 -2 -104 -2l-211 4l-195 -4q-59 0 -95 2z" />
<glyph unicode="J" horiz-adv-x="780" d="M-109 -303q0 43 25.5 70.5t61.5 27.5q66 0 100 -70q8 -17 19 -48q25 -70 67 -70q65 0 95 88.5t30 288.5v1239q0 76 -42.5 105t-164.5 34v59h27l294 -10l307 10v-61q-153 -7 -192 -33.5t-39 -109.5v-1102q0 -285 -92.5 -432.5t-271.5 -147.5q-97 0 -160.5 46.5 t-63.5 115.5z" />
<glyph unicode="K" horiz-adv-x="1505" d="M84 5v60q133 4 172 33t39 133v992q0 75 -43 104.5t-166 34.5v59h33l260 -8q117 0 311 8v-61q-134 -7 -173.5 -31t-39.5 -90v-477q490 462 490 561q0 22 -28.5 30.5t-111.5 8.5v59l37 -2l223 -6q17 0 230 8v-63h-31q-122 0 -205 -60q-7 -5 -129 -147t-252 -277 q513 -664 566 -717.5t105 -72.5t132 -23v-59l-286 4l-308 -10h-43v61h29q90 0 127 13t37 42.5t-188.5 267t-292.5 374.5l-101 -90v-457q0 -86 30 -113.5t126 -27.5h35l-1 -62q-36 -2 -98 -2l-200 4l-187 -4q-70 0 -98 3z" />
<glyph unicode="L" horiz-adv-x="1249" d="M90 1366v51q28 4 80 4l207 -8l235 8q52 0 78 -2v-57q-126 -5 -166.5 -29t-40.5 -88v-923q0 -148 35.5 -185.5t102 -51t195 -13.5t186 11.5t81.5 32.5q39 34 101 187l63 -6l-80 -299q-42 -2 -129 -2l-383 6q-148 0 -327 -9t-209 -9h-27v57q132 10 166.5 37.5t34.5 111.5 v1006q0 88 -43 129t-133 41h-27z" />
<glyph unicode="M" horiz-adv-x="1876" d="M25 0v57q162 6 204 68q27 36 40 249q28 485 28 641q0 186 -2 246q-87 89 -256 105v57q202 -10 229 -10l131 4q40 0 62 -2q275 -659 444 -1083h19q75 168 231 533t238 552q16 2 49 2l119 -4l129 6l71 -4v-55q-16 2 -47 2q-78 0 -110.5 -32t-32.5 -109v-6l16 -891 q4 -182 43.5 -223.5t159.5 -41.5q2 0 4 -2v-59q-102 8 -231 8l-226 -2q-61 0 -98 -5v56q112 19 146 49t34 107v10l-12 1022q-213 -481 -366.5 -855t-163.5 -425l-33 8q-236 720 -473 1182l-25 -967v-8q0 -71 36.5 -97t139.5 -28v-63l-162 10l-256 -6q-53 0 -79 4z" />
<glyph unicode="N" horiz-adv-x="1774" d="M16 1360l1 61q20 2 66.5 2t169 -3.5t200.5 -4.5q77 -92 226 -272q492 -595 728 -834v928q0 68 -37 94.5t-137 26.5h-31v59q48 4 84 4l191 -6l182 6l57 -2v-61q-97 -4 -136 -14.5t-56 -32.5q-16 -23 -22.5 -117.5t-6.5 -384.5v-127l8 -737v-35h-18q-30 51 -1120 1307v-981 q0 -99 42.5 -137t155.5 -38h10v-59q-26 -2 -67 -2l-174 6l-172 -6h-84v61q115 7 156.5 42.5t41.5 125.5v1014q-49 64 -101.5 91.5t-123.5 27.5z" />
<glyph unicode="O" horiz-adv-x="1815" d="M115 690q0 299 207 524q226 246 585 246q311 0 535 -196q118 -105 184 -241t66 -282.5t-60.5 -285t-178 -253.5t-269.5 -178t-309 -63q-312 0 -525 197q-114 105 -174.5 243t-60.5 289zM332 736.5q0 -303.5 160.5 -500.5t413.5 -197t412 177t159 460q0 188 -78 354.5 t-216 261t-315 94.5q-242 0 -389 -173t-147 -476.5z" />
<glyph unicode="P" horiz-adv-x="1243" d="M66 1352v55q302 51 475 51q290 0 462.5 -117.5t172.5 -303.5t-125 -299t-326 -113q-62 0 -102 8v49h22q161 0 246.5 88.5t85.5 248.5t-103.5 262.5t-259.5 102.5q-73 0 -104 -23t-31 -77v-1026q0 -128 38.5 -162t162.5 -39l-2 -55h-37l-299 8q-71 0 -274 -10v63 q149 10 188 44t39 147v977q0 70 -33.5 97.5t-118.5 27.5z" />
<glyph unicode="Q" horiz-adv-x="1815" d="M115 694q0 298 204 518q234 248 588 248q308 0 535 -196q118 -105 184 -241t66 -275q0 -265 -166.5 -470t-450.5 -288q19 -34 53 -100q82 -162 138 -216q105 -104 313 -104l55 2v-61q-71 -13 -141 -13q-341 0 -500 228q-27 38 -66.5 119t-66.5 116q-216 10 -362 92 q-182 102 -282.5 271t-100.5 370zM332 736.5q0 -303.5 160.5 -500.5t413.5 -197t412 177t159 460q0 188 -78 354.5t-216 261t-315 94.5q-242 0 -389 -173t-147 -476.5z" />
<glyph unicode="R" horiz-adv-x="1417" d="M72 1366v59h49l268 -8l236 8q224 0 355.5 -92t131.5 -248q0 -119 -84.5 -205t-241.5 -124q96 -65 235 -297q129 -216 188.5 -284t86.5 -82q48 -25 140 -25v-58h-41l-246 -10h-23q-124 133 -247.5 348t-160.5 268q-77 111 -204 111q-29 0 -41 -3v-542q0 -70 39.5 -95.5 t167.5 -27.5v-59h-6q-72 -4 -105 -4l-200 6l-256 -8h-33v61q123 2 169 41.5t46 145.5v987q0 80 -38.5 106.5t-184.5 30.5zM473 793q77 -7 105 -7q163 0 253.5 76t90.5 207t-88.5 213t-224.5 82t-136 -84v-487z" />
<glyph unicode="S" horiz-adv-x="1020" d="M82 295l59 6q75 -274 303 -274q123 0 205 80t82 200q0 54 -18 106q-38 105 -222 209q-20 11 -36 20.5t-62 33.5q-157 83 -209 140t-71 109.5t-19 118.5q0 187 123 299.5t328 112.5q146 0 270 -55q2 -52 9 -132.5t7 -106.5t-2 -36h-59q-18 125 -87.5 195t-176.5 70 t-181.5 -70.5t-74.5 -164t56 -158.5q64 -76 256 -172t263 -179q90 -106 90 -258q0 -192 -140 -311t-369 -119q-154 0 -293 80q-8 39 -15 125t-16 131z" />
<glyph unicode="T" horiz-adv-x="1339" d="M0 1120q27 195 27 281t-2 110l65 -4q24 -46 63 -65t130 -19h591q195 0 258 23t101 82l57 -15v-2l-55 -393h-70q8 23 8 95q1 69 -47 99t-200 31h-183v-1052q0 -147 40.5 -188.5t162.5 -41.5l17 5q3 0 8 -5v-61q-135 0 -223.5 5t-96.5 5l-241 -10h-84v61q130 0 179.5 38 t49.5 137v1103q-24 4 -125 4q-183 0 -232 -22.5t-77.5 -66t-57.5 -154.5z" />
<glyph unicode="U" horiz-adv-x="1726" d="M82 1366v59l291 -10l252 6q49 0 73 -2v-61h-22q-103 0 -148 -28.5t-45 -92.5v-586q0 -194 14 -281.5t55.5 -150t132.5 -100t220 -37.5q229 0 337 119.5t108 371.5v668q0 69 -35 94.5t-145 30.5l-1 59h48l188 -6l252 4l-1 -61q-137 -7 -172.5 -30.5t-35.5 -92.5v-659 q0 -312 -142.5 -464.5t-433.5 -152.5q-577 0 -577 488v684q0 145 -41 186.5t-172 44.5z" />
<glyph unicode="V" horiz-adv-x="1456" d="M-2 1364v57l231 -10l312 10v-57q-108 -10 -134 -24.5t-26 -51t106 -315.5t275 -674h18q218 546 289.5 743.5t71.5 240.5t-36.5 60t-147.5 23l-1 55h29l240 -10l186 10v-50q-68 -8 -104.5 -38t-83.5 -147l-59 -147q-419 -1041 -419 -1074l-51 6v2q0 19 -152 397.5 t-211 530.5t-65 167q-92 236 -131 263q-16 13 -71.5 22t-65.5 11z" />
<glyph unicode="W" horiz-adv-x="1972" d="M-12 1368v53l221 -6q79 0 231 10v-61q-56 -2 -80 -18t-24 -54.5t344 -817.5q65 -147 100 -228l183 407q-47 109 -143.5 336t-122.5 274q-54 98 -162 105v53l231 -6l188 6h50l-1 -57q-65 -2 -91.5 -17.5t-26.5 -46.5q0 -67 174 -448q176 377 176 440q0 70 -112 76l-1 51 q26 2 72 2l123 -6l151 6v-53q-66 -6 -100 -29t-68 -98q-57 -153 -206 -473l225 -520l364 987q13 28 13 49q0 72 -111 84v53q118 -6 200 -6t162 6l1 -49q-130 -19 -213 -235q-416 -1070 -416 -1174v-2h-78q-27 100 -119 315.5t-123 288.5q-167 -367 -245 -604h-76 q-22 120 -279 722q-62 146 -86 202.5t-49 117.5q-143 349 -276 365z" />
<glyph unicode="X" horiz-adv-x="1524" d="M14 0v63l21 -2q156 0 306 205q23 31 36 47l282 373q-383 543 -436.5 594t-93.5 66.5t-98 15.5h-13l1 59q32 2 92 2l221 -10l237 8q40 0 58 -2v-61q-105 0 -145 -10.5t-40 -34.5q0 -31 134.5 -213.5t191.5 -261.5q179 225 247 327t68 140q0 51 -143 57v59h37l242 -8l188 8 h43v-59q-111 0 -174 -31t-137 -129l-324 -430q115 -165 262.5 -379.5t178.5 -249.5q68 -75 208 -75h15v-68h-115l-199 4l-200 -4h-105v63q98 0 136 13.5t38 43.5t-57 118.5t-272 379.5q-328 -431 -328 -483q0 -34 32.5 -50t122.5 -24v-61h-79l-193 6l-168 -6h-78z" />
<glyph unicode="Y" horiz-adv-x="1413" d="M-25 1362v61h27l256 -10l252 6h39v-59l-82 -4q-72 -4 -72 -45q0 -32 102 -175t263 -331l323 440q25 35 25 59q0 46 -66 52l-102 10v51q24 2 68 2l168 -4l204 6v-57q-61 -5 -92.5 -18t-63.5 -49q-56 -63 -433 -574v-504q0 -97 38 -127.5t172 -32.5v-59q-112 4 -219 4 q-198 0 -380 -14l-1 59q135 8 174 37t39 109v440q0 77 -153 272q-93 116 -170 226q-161 229 -297 229h-19z" />
<glyph unicode="Z" horiz-adv-x="1346" d="M35 20q101 120 211 275l606 856q98 138 98 172q0 20 -43 20h-479q-126 0 -186 -43.5t-121 -173.5l-64 19q87 308 97 364h61q15 -49 64 -68.5t227 -19.5h723l20 -26q-576 -793 -742.5 -1030.5t-166.5 -261t51 -23.5h357q220 0 300.5 52t147.5 192l70 -7l-92 -319 q-78 6 -117 6l-242 -4h-770z" />
<glyph unicode="[" horiz-adv-x="821" d="M315 -489v1910h476v-61h-216q-85 0 -116 -36t-31 -144v-1426q0 -109 31.5 -145.5t115.5 -36.5h216v-61h-476z" />
<glyph unicode="\" horiz-adv-x="842" d="M61 1421h93l661 -1611h-94z" />
<glyph unicode="]" horiz-adv-x="821" d="M23 -424h215q84 0 115.5 36.5t31.5 143.5v1428q0 107 -31.5 143.5t-115.5 36.5h-215v61h475v-1910h-475v61z" />
<glyph unicode="^" horiz-adv-x="2048" d="M412 897l522 565h178l520 -565h-92l-518 436l-520 -436h-90z" />
<glyph unicode="_" d="M0 -365h1024v-118h-1024v118z" />
<glyph unicode="`" d="M229 1299q0 36 20.5 55.5t55.5 19.5t94 -59l289 -299h-67l-330 207q-62 40 -62 76z" />
<glyph unicode="a" horiz-adv-x="870" d="M72 206q0 105 403 244l55 19v164q0 147 -174 147q-62 0 -103.5 -26t-41.5 -54.5t8 -44.5l-118 -67q-13 35 -13 65q0 63 96 121l226 133q137 -12 201.5 -70.5t64.5 -170.5v-453q0 -75 12 -95t45 -20q50 0 80 66l29 -12q-17 -85 -63.5 -130t-116.5 -45q-130 0 -130 162v15 q-154 -177 -294 -177q-77 0 -121.5 62t-44.5 167zM217 221q0 -62 31 -103.5t78 -41.5q83 0 204 135v215l-9 -4q-304 -120 -304 -201z" />
<glyph unicode="b" horiz-adv-x="1102" d="M49 1440v28q90 32 262 119v-788q182 104 279 104q182 0 295 -123q123 -134 123 -307q0 -202 -134 -340q-68 -73 -161 -114.5t-180.5 -41.5t-177.5 30t-104 30q-31 0 -42 -33l-8 -29h-49q12 92 12 238v1049q0 81 -24.5 116.5t-90.5 61.5zM311 350q0 -142 64 -220.5 t187 -78.5t202.5 100.5t79.5 273.5t-87 279.5t-231 106.5q-96 0 -215 -72v-389z" />
<glyph unicode="c" horiz-adv-x="913" d="M94 425q0 200 131.5 340t327.5 140q115 0 189.5 -46t74.5 -114q0 -34 -21 -54.5t-63 -20.5t-97 75l-15 21q-54 68 -129 68q-111 0 -182.5 -95t-71.5 -250.5t93 -267.5t227.5 -112t258.5 151l33 -27q-157 -258 -379 -258q-161 0 -269 125t-108 325z" />
<glyph unicode="d" horiz-adv-x="1102" d="M94 401q0 190 123 344q129 160 342 160q88 0 207 -37v490q0 33 -23 52t-90 36v37q134 41 260 104v-1394q0 -55 14.5 -71t43 -16t88.5 15v-51q-124 -37 -271 -95l-22 13v137l-143 -102q-69 -48 -154 -48q-154 0 -264.5 124t-110.5 302zM256 474.5q0 -163.5 81.5 -276 t194.5 -112.5t234 117v403q0 103 -67 169.5t-176.5 66.5t-188 -102t-78.5 -265.5z" />
<glyph unicode="e" horiz-adv-x="913" d="M94 407.5q0 199.5 122 348.5t294 149q138 0 223.5 -86.5t85.5 -226.5q0 -35 -2 -51h-573l-6 -68q0 -157 91 -266t216 -109t252 125l28 -30q-152 -216 -358 -216q-165 0 -269 115.5t-104 315zM252 598h315q48 0 68 18.5t20 76.5t-48.5 105.5t-128 47.5t-142 -67.5 t-84.5 -180.5z" />
<glyph unicode="f" horiz-adv-x="711" d="M90 797v86h158v61q0 305 93.5 474t260.5 169q59 0 94 -25t35 -61.5t-19 -55t-47 -18.5t-72.5 31t-76.5 31q-123 0 -123 -186v-9l6 -411h244v-86h-244v-580q0 -109 28 -136.5t128 -27.5h18v-53q-94 4 -192 4l-207 -6q-60 0 -82 3v50h12q86 0 115 27.5t29 114.5v604h-158z " />
<glyph unicode="g" horiz-adv-x="1022" d="M119 -250q0 25 2 37l209 152q-185 37 -185 213v16l211 162q-106 24 -165.5 91.5t-59.5 162.5q0 135 100 229t231.5 94t291.5 -80h231v-90h-182q16 -62 16 -104q0 -135 -100 -225.5t-252 -90.5h-31q-68 -24 -107.5 -63t-39.5 -80q0 -94 172 -94l209 10q133 0 210.5 -71.5 t77.5 -207.5t-132 -236.5t-320.5 -100.5t-287.5 73t-99 203zM250 -250q0 -98 77 -160.5t205.5 -62.5t212.5 67.5t84 174.5q0 176 -229 176q-18 0 -82 -4.5t-109 -6.5q-159 -69 -159 -184zM272 625.5q0 -109.5 57.5 -186.5t146 -77t143.5 67t55 175t-62.5 180t-149.5 72 t-138.5 -60.5t-51.5 -170z" />
<glyph unicode="h" horiz-adv-x="1124" d="M57 51q93 11 120.5 32t27.5 71v1140q0 60 -25.5 91.5t-116.5 74.5v23q130 41 289 104v-862q191 164 338 164q131 0 199 -96q22 -30 31.5 -68t9.5 -115v-467q0 -51 27 -70.5t106 -21.5l-1 -51q-108 6 -224.5 6t-206.5 -6v51q98 4 124.5 24.5t26.5 90.5v414q0 196 -161 196 q-122 0 -269 -112v-517q0 -54 28 -74t111 -22v-51q-114 6 -207.5 6t-225.5 -6z" />
<glyph unicode="i" horiz-adv-x="547" d="M57 51q93 11 120.5 32t27.5 71v497q0 48 -23.5 72.5t-91.5 44.5v35q43 12 209 79l57 23v-758q0 -54 28 -74.5t111 -23.5l1 -49q-90 7 -191 7q-115 0 -247 -9zM168 1396q0 44 32 76.5t76.5 32.5t76.5 -32.5t32 -77.5t-32 -77t-76 -32t-76.5 33t-32.5 77z" />
<glyph unicode="j" horiz-adv-x="555" d="M16 -455q112 76 159.5 183t47.5 286v637q0 48 -23.5 72.5t-90.5 44.5v35q40 10 270 102l-8 -164l2 -387v-145q0 -180 -10 -264.5t-43 -158t-110.5 -153.5t-176.5 -131zM186 1396q0 44 32.5 76.5t76.5 32.5t77.5 -33t33.5 -77.5t-33 -76.5t-77 -32t-77 33t-33 77z" />
<glyph unicode="k" horiz-adv-x="1106" d="M72 -2v53q76 8 104.5 30.5t28.5 72.5v1198q-42 47 -115 82v34q162 63 262 119v-1100q328 239 328 306q0 31 -54 39l-77 8v49l203 -6l180 8q11 0 61 -4v-49h-18q-109 0 -160 -39q-26 -21 -103.5 -92t-133.5 -113q206 -286 350 -463q37 -45 65.5 -59.5t69.5 -14.5h22v-51 l-55 -3q-19 -1 -33 -1l-161 6l-222 -8l1 51q67 5 93.5 19t26.5 47t-174 252q-62 79 -98 125l-111 -84v-263q0 -53 27 -74.5t98 -23.5v-49q-120 8 -185.5 8t-219.5 -10z" />
<glyph unicode="l" horiz-adv-x="547" d="M57 0v49q94 13 121 34t27 71v1108q0 83 -24 118.5t-91 59.5v28q179 69 266 119v-1440q0 -54 28 -74.5t111 -23.5l1 -49q-104 8 -203 8z" />
<glyph unicode="m" horiz-adv-x="1688" d="M78 0v51l53 4q42 3 58 20.5t16 80.5v510q0 43 -83 82q-24 11 -38 18v39q44 16 133 50t133 50v-157l60 40q146 107 254 107q170 0 241 -172l101 76q123 94 233.5 94t182 -72.5t71.5 -187.5v-463q0 -68 16 -89t62 -28l47 -2l-1 -51q-74 6 -161 6l-217 -4l-29 -2v51l76 10 q36 6 49 32t13 108v387q0 95 -48 146.5t-151 51.5t-229 -114v-500q0 -71 23 -96t83 -25l16 2q7 0 11 -2v-51l-74 4l-127 2q-88 0 -139 -2t-63 -4l-1 51q73 0 99 22t26 85v426q0 97 -52 149.5t-150 52.5t-222 -96v-485q0 -95 12 -117t46 -27l77 -10v-51l-92 6l-272 -6h-43z " />
<glyph unicode="n" horiz-adv-x="1128" d="M57 51q93 11 120.5 32t27.5 71v497q0 48 -23.5 72.5t-91.5 44.5v35q118 36 250 102l12 -8v-172q193 164 340 164q135 0 201 -96q22 -30 31.5 -68t9.5 -115v-467q0 -54 27 -73t106 -19v-51q-106 6 -204 6t-232 -6v51q96 0 123.5 21t27.5 94v414q0 196 -161 196 q-122 0 -269 -112v-517q0 -54 28 -74t111 -22v-51q-114 6 -207.5 6t-225.5 -6z" />
<glyph unicode="o" horiz-adv-x="1124" d="M94 431q0 196 137.5 335t334 139t329.5 -138t133 -322.5t-133 -317.5q-148 -152 -344.5 -152t-326.5 130t-130 326zM268 460.5q0 -179.5 85.5 -299.5t214 -120t207.5 98t79 278t-84.5 302.5t-216 122.5t-208.5 -101t-77 -280.5z" />
<glyph unicode="p" horiz-adv-x="1098" d="M16 -518l1 47q103 6 135 39.5t32 150.5v910q0 58 -24.5 85.5t-96.5 47.5v26q103 42 269 121v-141q134 76 201.5 101.5t121.5 25.5q144 0 248.5 -120.5t104.5 -284.5t-71 -273t-220 -182q-116 -55 -277 -55h-66q-22 0 -42 1v-288q0 -115 32 -140t158 -32v-47h-22l-269 12 l-176 -4h-39zM332 252q0 -93 20 -119.5t79 -45.5t126 -19q129 0 209 94.5t80 253t-86.5 260.5t-220.5 102q-95 0 -207 -63v-463z" />
<glyph unicode="q" horiz-adv-x="1087" d="M94 401q0 193 139 338q152 158 359 158q58 0 124 -19.5t77 -19.5q44 0 69 47l51 -10q-6 -68 -6 -188v-1016q0 -96 27 -127t104 -31h19l-1 -51q-48 -4 -69 -4l-160 6l-213 -6h-26v55q105 3 139.5 35.5t34.5 169.5v346q-133 -107 -266 -107q-171 0 -286.5 122.5 t-115.5 301.5zM262 447q0 -165 86.5 -272t220.5 -107q96 0 193 71v424q0 122 -59 190t-171 68t-191 -104.5t-79 -269.5z" />
<glyph unicode="r" horiz-adv-x="768" d="M78 1v46q75 0 101 25t26 100v494q0 43 -83 82q-24 11 -38 18v39l54 20q157 60 218 80v-241l68 88q114 143 211 143q53 0 84 -26.5t31 -70t-22 -67.5t-51.5 -24t-73.5 17t-73 17t-68 -32.5t-106 -118.5v-385q0 -86 32.5 -116t131.5 -34v-53l-201 2l-176 -6q-49 0 -65 3z " />
<glyph unicode="s" horiz-adv-x="811" d="M97 242l53 8q31 -106 88.5 -161.5t131.5 -55.5t122.5 43t48.5 106q0 98 -158 193l-21 12q-133 80 -179 138t-46 146.5t83.5 161t196 72.5t246.5 -57q-6 -142 -6 -189h-39q-34 102 -80 146.5t-114 44.5t-113 -38.5t-45 -96.5q0 -87 188 -195q5 -3 7 -4q131 -76 174 -134.5 t43 -139.5q0 -113 -90 -190t-223 -77q-129 0 -254 82q-1 18 -4 83.5t-10 101.5z" />
<glyph unicode="t" horiz-adv-x="721" d="M78 768v41q138 103 260 229l20 -4q-2 -32 -2 -90v-88h265v-86h-269v-463q0 -118 27 -167.5t88 -49.5q96 0 141 96l39 -14q-27 -92 -88.5 -144.5t-159 -52.5t-145 64t-47.5 223v424q0 54 -21 66t-108 16z" />
<glyph unicode="u" horiz-adv-x="1100" d="M39 807v47h16q46 0 141 16t138 20v-544q0 -250 196 -250q93 0 220 107v504q0 55 -34 77.5t-120 24.5v45q159 6 301 37v-635q0 -92 11 -113.5t42 -21.5l84 8v-39q-101 -31 -260 -115l-20 17q6 68 6 155l-101 -84q-106 -88 -221 -88q-252 0 -252 293v381q0 99 -27.5 127 t-119.5 31z" />
<glyph unicode="v" horiz-adv-x="969" d="M0 829v52h45l168 -7l209 11v-53q-73 -4 -98 -15t-25 -37q0 -13 8 -35l223 -528q203 469 203 551q0 66 -131 66v46q20 3 68 3l127 -6q25 0 161 6v-49q-110 -8 -177 -167q-88 -190 -277 -692h-35q-26 85 -60 162.5t-40 91.5l-193 465q-30 72 -50 94.5t-52 28.5z" />
<glyph unicode="w" horiz-adv-x="1475" d="M0 832v44q10 3 49 3l533 -11l364 9v-52l-84 -6q-65 -2 -65 -39q0 -13 6 -31l217 -536l184 426q43 94 43 119q0 45 -57 55l-76 14v47l180 -10l121 2q50 0 80 -2v-47q-72 0 -115 -27t-71 -90l-165 -360q-125 -269 -159 -365h-35q-23 123 -209 543q-121 -236 -239 -543h-31 q-33 105 -68 187l-215 528q-33 81 -72 108.5t-116 33.5zM313 784q0 -17 19 -61l205 -508q101 232 174 371q-45 118 -101 219q-52 8 -116 8h-84q-97 0 -97 -29z" />
<glyph unicode="x" horiz-adv-x="1016" d="M35 831v46l59 2l182 -7l154 5h37v-46l-60 -4q-55 -2 -55 -34q0 -14 21 -43l153 -213l117 141q64 79 64 102q0 43 -61 49l-54 7v44q15 3 53 3l148 -9h14l49 4q50 3 100 5v-52h-10q-103 0 -243 -168l-140 -171q15 -21 42 -60q264 -379 356 -379l16 2v-55l-207 6l-199 -4 q-22 0 -34 -2v53l54 2q66 4 66 43q0 20 -24 51l-166 230l-133 -170q-51 -67 -51 -95t16 -40.5t46 -16.5l54 -6v-47q-70 2 -145 2l-191 -6h-24v53q95 2 177 104q8 11 12 16l204 249q-36 50 -97 138q-191 274 -282 274z" />
<glyph unicode="y" horiz-adv-x="1051" d="M0 829v51q16 3 61 3l211 -9l205 7v-52l-84 -8q-61 -6 -61 -43q0 -12 24 -82l193 -495l225 501q17 34 18 65t-31 46t-106 19l1 49q18 2 46 2l154 -6l143 6q31 0 51 -2l1 -49q-70 -2 -110 -25t-69 -73q-82 -143 -319 -675l-5 -11q-258 -574 -386 -574q-41 0 -66.5 23 t-25.5 59.5t22.5 60t57.5 23.5l53 -5q89 0 258 369l4 8l-246 627q-53 132 -90 161t-109 29h-20z" />
<glyph unicode="z" horiz-adv-x="1001" d="M80 29q111 116 569 766q-52 8 -119 8h-157q-83 0 -134.5 -30.5t-82.5 -98.5l-62 10q27 64 76 250l49 2q5 -40 32.5 -56t121.5 -16h299l196 2v-24l-156 -211q-339 -457 -407 -559q124 -9 213 -9h80q127 0 171.5 22.5t78.5 88.5l41 80l49 -14q-13 -45 -37 -129.5 t-33 -108.5q-36 -2 -84 -2l-499 6l-203 -2z" />
<glyph unicode="{" d="M176 606v60q165 15 223 74t58 216v213q0 200 81 273.5t298 73.5h10v-51q-142 -2 -194 -55.5t-52 -209.5v-143q0 -226 -61 -308.5t-226 -113.5q165 -31 226 -113.5t61 -308.5v-143q0 -156 51.5 -208.5t194.5 -54.5v-51h-10q-217 0 -298 73.5t-81 272.5v213q0 158 -59 218 t-222 73z" />
<glyph unicode="|" d="M449 -483v2048h126v-2048h-126z" />
<glyph unicode="}" d="M178 -193q143 2 194.5 54.5t51.5 208.5v143q0 226 61 308.5t226 113.5q-165 31 -226 113.5t-61 308.5v143q0 156 -52 209.5t-194 55.5v51h10q216 0 297.5 -74t81.5 -273v-213q0 -157 58 -216t223 -74v-60q-163 -13 -222 -73t-59 -218v-213q0 -198 -81.5 -272t-297.5 -74 h-10v51z" />
<glyph unicode="~" horiz-adv-x="1706" d="M178 461v133q209 145 387 145q127 0 326 -78q164 -59 254 -59q163 0 385 156v-131q-202 -144 -387 -144q-82 0 -151.5 22.5t-126.5 43.5q-202 72 -302 72q-157 0 -385 -160z" />
<glyph horiz-adv-x="1322" d="M90 797v86h160v6q0 313 151 505.5t392 192.5q96 0 149 -31t73 -60q91 93 196 91q59 0 94 -25t35 -61.5t-19 -55t-47 -18.5t-72.5 31t-76.5 31q-120 0 -122 -169v-27l5 -410h244v-86h-244v-580q0 -109 28 -136.5t128 -27.5h18v-53q-94 4 -192 4l-207 -6q-59 0 -82 3v50h12 q86 0 115 27.5t29 114.5v604h-460v-580q0 -109 27.5 -136.5t128.5 -27.5h20v-53q-94 4 -192 4l-207 -6q-60 0 -82 3v50h12q87 0 116.5 27t29.5 115v604h-160zM397 883h460l4 165q27 242 85 336q-80 4 -146 70q-28 28 -58.5 31.5t-53.5 3.5q-139 0 -215 -109.5t-76 -310.5 v-186z" />
<glyph horiz-adv-x="1809" d="M90 797v86h160v6q0 313 167 505.5t408 192.5q96 0 160.5 -39t71.5 -100q157 141 345 139q96 0 160.5 -39t64.5 -96q0 -31 -22 -49.5t-57 -18.5q-68 0 -164 94q-39 11 -87 11q-139 0 -215 -109.5t-76 -310.5v-186h338q124 0 272 22l1 -758q0 -53 26.5 -73t116.5 -25v-49 q-96 8 -192 8t-246 -10v55q78 0 112.5 24t34.5 77v497q0 86 -37.5 116t-181.5 30h-244v-580q0 -109 27.5 -136.5t128.5 -27.5h20v-53q-94 4 -192 4l-207 -6q-59 0 -82 3v50h12q87 0 116.5 27t29.5 115v604h-462v-580q0 -109 27.5 -136.5t128.5 -27.5h20v-53q-94 4 -192 4 l-207 -6q-60 0 -82 3v50h12q87 0 116.5 27t29.5 115v604h-160zM397 883h462q2 315 147 503q-71 -2 -110.5 21t-88.5 71q-39 11 -87 11q-139 0 -231 -109.5t-92 -310.5v-186z" />
<glyph horiz-adv-x="1808" d="M90 797v86h160v6q0 313 160 505.5t401 192.5q96 0 160.5 -39t75.5 -94q110 124 315 131q39 0 87 -9t57 -9q22 0 50 8l62 20v-1448q0 -54 28 -74.5t113 -23.5v-49q-179 15 -436 -2v53q92 11 119.5 32t27.5 71v643h-465q0 -689 27.5 -716.5t128.5 -27.5h20v-53 q-94 4 -192 4l-207 -6q-60 0 -82 3v50h12q87 0 116.5 27t29.5 115v604h-461v-580q0 -109 27.5 -136.5t128.5 -27.5h20v-53q-94 4 -192 4l-207 -6q-60 0 -82 3v50h12q87 0 116.5 27t29.5 115v604h-160zM397 883h461v24q14 284 82 395l60 97q-8 -15 -44 -15q-67 0 -163 94 q-39 11 -87 11q-139 0 -224 -109.5t-85 -310.5v-186zM1005 883h465v377q0 112 -49.5 172.5t-142.5 60.5q-131 0 -202 -110t-71 -316v-184z" />
<glyph unicode="&#xa0;" />
<glyph unicode="&#xa1;" horiz-adv-x="688" d="M197 115q0 74 44.5 360.5t65.5 495.5h39q10 -225 48 -505.5t38 -342.5q0 -162 -113 -162q-122 0 -122 154zM197 1282q0 52 36.5 88.5t88 36.5t89.5 -37.5t38 -88t-38 -88.5t-89.5 -38t-88 37.5t-36.5 89.5z" />
<glyph unicode="&#xa2;" d="M92 444q0 220 137.5 368.5t337.5 148.5q37 0 109 -10l102 274h64l-107 -291q80 -30 124 -79t44 -95.5t-24.5 -71t-61.5 -24.5q-70 0 -123 141q-4 9 -6 14l-248 -674q70 -34 138 -34q170 0 307 188l30 -14q-146 -301 -434 -301q-54 0 -96 16l-117 -313h-63l121 331 q-234 136 -234 426zM246 500q0 -221 143 -318l256 701q-48 26 -98 26q-128 0 -214.5 -116.5t-86.5 -292.5z" />
<glyph unicode="&#xa3;" d="M104 39q0 71 179 149q16 7 25 11q57 26 95.5 84t38.5 118q0 115 -141 285h-197v72h158q-86 112 -86 237q0 159 115 264t291 105q227 0 370 -180l-108 -213l-55 16q10 48 10 78q0 101 -70.5 169.5t-170.5 68.5t-158 -60t-58 -158q0 -131 145 -327h328v-72h-278 q59 -104 59 -182q0 -150 -219 -293l4 -10l76 8q67 0 167 -23.5t134 -23.5q107 0 166 121l41 -9q-7 -36 -37 -129.5t-43 -140.5q-82 -22 -137 -22q-130 0 -262 108q-77 62 -113.5 62t-58.5 -14q-25 -18 -67.5 -87t-88.5 -69q-25 0 -39.5 15.5t-14.5 41.5z" />
<glyph unicode="&#xa4;" horiz-adv-x="1241" d="M86 424l207 205q-88 116 -88 256t88 256l-207 205l72 73l207 -207q119 91 256 91q141 0 260 -91l204 207l72 -73l-205 -205q86 -114 86 -256q0 -144 -86 -256l205 -205l-72 -74l-204 207q-114 -88 -260 -88q-145 0 -256 88l-207 -207zM309 886q0 -130 91.5 -222.5 t221.5 -92.5t222 93t92 222.5t-91.5 221.5t-221.5 92t-222 -92t-92 -222z" />
<glyph unicode="&#xa5;" horiz-adv-x="1176" d="M-35 1292v58h23l235 -11l223 7h35v-58l-68 -2q-71 -2 -71 -43q0 -31 80 -163t217 -324l252 422q24 43 24 64.5t-13.5 30t-49.5 13.5l-74 10v47q19 3 62 3l159 -5l174 7l1 -54h-5q-76 0 -137 -54.5t-176 -250.5h264v-49h-293q-33 -55 -107 -178l-42 -70h442v-47h-448v-436 q0 -90 37 -120t155 -32v-53q-102 2 -240 2t-300 -14v55q119 8 156.5 36t37.5 101v420q0 19 -6 41h-457v47h434q-49 86 -157 248h-277v49h246q-103 186 -171 244.5t-157 58.5h-8z" />
<glyph unicode="&#xa6;" d="M449 -350v758h126v-758h-126zM449 674v758h126v-758h-126z" />
<glyph unicode="&#xa7;" d="M139 -274q0 40 26 66t60.5 26t55.5 -12q24 -13 77 -76.5t117.5 -63.5t100.5 50.5t36 136t-38.5 178.5t-178 302t-194 345.5t-54.5 235.5q0 325 246 476q114 70 227 70t180.5 -39t67.5 -100q0 -37 -23 -57.5t-73.5 -20.5t-107.5 61q-67 72 -125.5 72t-93.5 -40.5t-35 -106 t32.5 -146t97 -184.5t104.5 -167q261 -412 261 -629.5t-148 -373t-362 -155.5q-114 0 -185 42.5t-71 109.5zM233 996q0 -131 58 -269t194 -345.5t175.5 -304.5t39.5 -157q0 -92 -20 -162q64 46 99.5 131t35.5 190t-47.5 223t-198.5 353.5t-196 345t-45 201.5q0 40 4 62 q-99 -137 -99 -268z" />
<glyph unicode="&#xa8;" d="M238 1170q0 42 29 72t69 30t70 -30.5t30 -72t-28.5 -70t-71.5 -28.5t-70.5 28.5t-27.5 70.5zM588 1169.5q0 41.5 30 72t70 30.5t69 -30t29 -72t-27.5 -70.5t-70.5 -28.5t-71.5 28.5t-28.5 70z" />
<glyph unicode="&#xa9;" horiz-adv-x="1683" d="M139 678q0 289 205 498q98 99 228 152.5t269.5 53.5t269 -53.5t227 -150.5t152 -228.5t54.5 -271.5q0 -289 -207 -498q-201 -205 -495 -205q-289 0 -496 205t-207 498zM225 678q0 -259 183 -440q179 -181 434 -181q257 0 434 181q182 186 182 440q0 124 -47.5 240.5 t-133 202.5t-200 134t-235.5 48t-235.5 -48.5t-201.5 -136.5q-180 -184 -180 -440zM426 670q0 180 116 306t285 126q74 0 148 -34t82 -34q52 0 63 62h35l2 -314h-41q-68 275 -280 275q-248 0 -248 -377t266 -377q170 0 283 174l34 -24q-115 -209 -342 -209q-167 0 -285 123 t-118 303z" />
<glyph unicode="&#xaa;" horiz-adv-x="653" d="M53 949q0 73 290 166q35 11 54 18v114q0 105 -129 105q-47 0 -78.5 -18.5t-31.5 -45.5q0 -8 5 -25l-87 -46q-10 25 -10 45q0 43 73 86l168 92q103 -8 152 -49t49 -119v-318q0 -53 9 -66.5t39.5 -13.5t53.5 46l21 -9q-12 -59 -47.5 -91t-87.5 -32q-97 0 -97 115v10 q-115 -125 -221 -125q-58 0 -91.5 44t-33.5 117zM164 961q0 -45 23 -74t57 -29q63 0 153 94v152q-233 -87 -233 -143z" />
<glyph unicode="&#xab;" horiz-adv-x="928" d="M92 432l387 340l27 -27l-242 -301l244 -311l-27 -24zM418 432l389 340l24 -27l-241 -301l244 -311l-27 -24z" />
<glyph unicode="&#xac;" horiz-adv-x="1706" d="M254 741v117h1198v-502h-115v385h-1083z" />
<glyph unicode="&#xad;" horiz-adv-x="750" d="M94 385v139h557v-139h-557z" />
<glyph unicode="&#xae;" horiz-adv-x="1683" d="M139 678q0 289 205 498q98 99 228 152.5t270 53.5t270.5 -54t228 -151.5t150.5 -228.5t53 -270t-55.5 -269.5t-156.5 -230.5q-202 -203 -496 -203q-283 0 -490 205t-207 498zM225 678q0 -259 183 -440q179 -181 434 -181q257 0 434 181q182 186 182 440 q0 124 -47.5 241.5t-133 202.5t-200 133t-235 48t-234.5 -48t-202 -137q-181 -183 -181 -440zM469 291v40q72 3 99.5 24.5t27.5 76.5v516q0 55 -26 76t-101 25v43h393q147 0 232.5 -54.5t85.5 -138.5t-69.5 -132t-217.5 -75q93 -29 142 -78q66 -65 82 -196q13 -88 59 -88 q67 0 67 133h43v-12q0 -179 -160 -179q-94 0 -127 66q-18 40 -21 113.5t-9 95.5q-39 133 -207 133h-33v-248q0 -54 26.5 -75.5t98.5 -25.5v-40h-385zM729 719q32 -2 66 -2q112 0 173.5 45.5t61.5 123.5t-53 122.5t-150.5 44.5t-97.5 -72v-262z" />
<glyph unicode="&#xaf;" d="M254 1108v127h516v-127h-516z" />
<glyph unicode="&#xb0;" horiz-adv-x="674" d="M55 1171.5q0 118.5 82.5 200.5t200 82t200.5 -83t83 -199.5t-83.5 -199.5t-201.5 -83t-199.5 82t-81.5 200.5zM135 1171q0 -84 59.5 -143t143.5 -59t142.5 59t58.5 143t-58.5 142.5t-142.5 58.5t-143.5 -58.5t-59.5 -142.5z" />
<glyph unicode="&#xb1;" horiz-adv-x="1706" d="M254 41v117h1198v-117h-1198zM254 719v117h541v344h118v-344h539v-117h-539v-344h-118v344h-541z" />
<glyph unicode="&#xb2;" horiz-adv-x="676" d="M33 541v39q214 181 309.5 308.5t95.5 229.5q0 69 -41.5 111.5t-107.5 42.5q-102 0 -191 -119l-28 14q110 191 282 191q94 0 149.5 -54t55.5 -146.5t-83.5 -202.5t-328.5 -318h209q45 0 136.5 2t115.5 2l-69 -102q-136 2 -240 2l-217 -4q-23 0 -47 4z" />
<glyph unicode="&#xb3;" horiz-adv-x="676" d="M55 592.5q0 25.5 14 38t29 12.5q30 0 38 -6q69 -53 135 -53t123 61.5t57 144.5t-40.5 129t-105.5 46q-31 0 -59 -6l-13 24l89 74q69 59 69 111t-37 82t-102 30t-137 -66l-23 17q87 129 223 129q76 0 124 -37t48 -103t-98 -151v-8q178 -67 178 -217q0 -124 -98 -209 q-122 -109 -281 -109q-59 0 -96 20.5t-37 46z" />
<glyph unicode="&#xb4;" d="M336 1016l289 299q59 59 94 59t55.5 -19.5t20.5 -55.5t-62 -76l-330 -207h-67z" />
<glyph unicode="&#xb5;" horiz-adv-x="1120" d="M-80 -330.5q0 40.5 64.5 274t105.5 427.5l109 514h147l-104 -492q-13 -65 -13 -130t42 -111t129 -46t152.5 68.5t94.5 200.5l111 510h149l-114 -531q-21 -95 -21 -140t26 -75t64 -30q75 0 119 69q21 33 41 93.5t39 60.5q26 0 26 -31q0 -63 -39 -150q-75 -169 -231 -169 q-68 0 -108.5 51t-40.5 139v23q-91 -218 -283.5 -218t-220.5 216q-27 -136 -52 -339q-34 -272 -112 -272q-37 0 -58.5 23.5t-21.5 64z" />
<glyph unicode="&#xb6;" d="M76 1133q0 154 107.5 250t285.5 96h479v-78h-125v-1401h-94v1401h-182v-1401h-96v782q-173 8 -274 102.5t-101 248.5z" />
<glyph unicode="&#xb7;" horiz-adv-x="512" d="M115 682.5q0 50.5 37.5 88.5t89.5 38t88.5 -37t36.5 -89.5t-37 -89t-88 -36.5t-89 37.5t-38 88z" />
<glyph unicode="&#xb8;" d="M274 -371l35 78q129 -72 223 -72q121 0 121 93q0 42 -30 66t-70 24t-74 -6v188h64v-112q19 3 83 4.5t112 -42t48 -123t-58 -126.5t-161 -47t-293 75z" />
<glyph unicode="&#xb9;" horiz-adv-x="676" d="M133 1192l86 53q80 50 143 113l41 -4v-686q0 -57 24 -77t89 -22v-26l-78 -2l-106 2l-113 -4h-41v30h12q57 0 81 18t24 60v565q0 27 -8 27q-7 0 -27 -12l-108 -60z" />
<glyph unicode="&#xba;" horiz-adv-x="844" d="M72 1107.5q0 137.5 102.5 234t251.5 96.5t248 -101q98 -92 98 -215q0 -131 -100 -229q-111 -105 -258.5 -105t-244.5 91t-97 228.5zM201 1127q0 -126 64 -209.5t160.5 -83.5t156 68t59.5 194.5t-63.5 212.5t-162.5 86t-156.5 -71t-57.5 -197z" />
<glyph unicode="&#xbb;" horiz-adv-x="928" d="M92 748l27 24l389 -323l-387 -340l-27 26l242 301zM418 748l26 24l390 -323l-388 -340l-26 26l242 301z" />
<glyph unicode="&#xbc;" horiz-adv-x="1632" d="M127 1202l84 49q89 57 135 105l39 -2v-641q0 -53 23.5 -72t85.5 -21v-24l-76 -2l-103 2l-104 -4h-41v29h12q53 0 76 16.5t23 54.5v529q-1 24 -6 24q-7 0 -27 -10l-103 -57zM303 -18l934 1384h90l-932 -1384h-92zM1038 246v28q83 111 178 231t105 134l96 125l41 -5 q-10 -118 -10 -255v-182h125v-72h-125v-250h-96v250h-144zM1145 344q0 -22 49 -22h158v305l-197 -262q-10 -15 -10 -21z" />
<glyph unicode="&#xbd;" horiz-adv-x="1632" d="M127 1202l84 49q89 57 135 105l39 -2v-641q0 -53 23.5 -72t85.5 -21v-24l-76 -2l-103 2l-104 -4h-41v29h12q53 0 76 16.5t23 54.5v529q-1 24 -6 24q-7 0 -27 -10l-103 -57zM303 -18l934 1384h90l-932 -1384h-92zM1018 2v37q203 167 295 286.5t92 215.5q0 64 -39 103.5 t-102 39.5q-102 0 -183 -111l-28 15q104 176 270 176q90 0 143.5 -50t53.5 -136t-79 -187.5t-315 -298.5h199q134 0 240 4l-66 -96q-128 2 -229 2l-207 -4q-21 0 -45 4z" />
<glyph unicode="&#xbe;" horiz-adv-x="1632" d="M53 642q0 48 47 48q22 0 31 -6q68 -51 129.5 -51t115.5 58t54 135.5t-38.5 120t-100.5 42.5q-23 0 -56 -5l-14 22l86 69q68 56 68 104t-36.5 76.5t-99.5 28.5t-128 -61l-23 14q81 121 213 121q72 0 118 -35t46 -94.5t-94 -143.5v-6q172 -63 172 -202q0 -114 -94 -195 q-119 -102 -269 -102q-56 0 -91.5 19t-35.5 43zM303 -18l934 1384h90l-932 -1384h-92zM1038 246v28q83 111 178 231t105 134l96 125l41 -5q-10 -118 -10 -255v-182h125v-72h-125v-250h-96v250h-144zM1145 344q0 -22 49 -22h158v305l-197 -262q-10 -15 -10 -21z" />
<glyph unicode="&#xbf;" horiz-adv-x="909" d="M209 527.5q0 95.5 46 156.5q50 66 180 107q110 35 114 123l8 98h51l13 -350q-164 -36 -241 -100.5t-77 -160t57.5 -162.5t159.5 -94q81 9 105 9q114 0 114 -93q0 -45 -31.5 -72.5t-92.5 -27.5t-132.5 41.5t-132 122t-101 194t-40.5 209zM463 1280q0 51 36.5 88t88.5 37 t89.5 -36.5t37.5 -88t-38 -88.5t-89 -37t-88 37t-37 88z" />
<glyph unicode="&#xc0;" horiz-adv-x="1559" d="M37 4v61q101 6 142.5 28.5t70.5 78.5q42 85 139 393q206 619 246 778l6 21q5 20 31.5 43t99.5 68l27 -11q137 -352 281 -723.5t178 -456.5q65 -161 106 -192q33 -23 129 -31v-59l-61 -2l-185 10l-213 -10q-47 0 -75 2l-1 61h41q61 2 87 19.5t26 45.5q0 49 -20 99 l-131 332q-92 0 -482 10l-78 -243q-36 -120 -36 -166q0 -95 161 -99v-57h-37l-237 6q-31 0 -215 -6zM471 1854q0 36 20.5 55.5t55.5 19.5t94 -59l289 -299h-67l-330 207q-62 40 -62 76zM508 649l412 -2q-129 363 -230 580q-23 -77 -86.5 -270.5t-95.5 -307.5z" />
<glyph unicode="&#xc1;" horiz-adv-x="1559" d="M37 4v61q101 6 142.5 28.5t70.5 78.5q42 85 139 393q206 619 246 778l6 21q5 20 31.5 43t99.5 68l27 -11q137 -352 281 -723.5t178 -456.5q65 -161 106 -192q33 -23 129 -31v-59l-61 -2l-185 10l-213 -10q-47 0 -75 2l-1 61h41q61 2 87 19.5t26 45.5q0 49 -20 99 l-131 332q-92 0 -482 10l-78 -243q-36 -120 -36 -166q0 -95 161 -99v-57h-37l-237 6q-31 0 -215 -6zM508 649l412 -2q-129 363 -230 580q-23 -77 -86.5 -270.5t-95.5 -307.5zM578 1571l289 299q59 59 94 59t55.5 -19.5t20.5 -55.5t-62 -76l-330 -207h-67z" />
<glyph unicode="&#xc2;" horiz-adv-x="1559" d="M37 4v61q101 6 142.5 28.5t70.5 78.5q42 85 139 393q206 619 246 778l6 21q5 20 31.5 43t99.5 68l27 -11q137 -352 281 -723.5t178 -456.5q65 -161 106 -192q33 -23 129 -31v-59l-61 -2l-185 10l-213 -10q-47 0 -75 2l-1 61h41q61 2 87 19.5t26 45.5q0 49 -20 99 l-131 332q-92 0 -482 10l-78 -243q-36 -120 -36 -166q0 -95 161 -99v-57h-37l-237 6q-31 0 -215 -6zM463 1571l232 350h118l232 -350h-58l-233 211l-233 -211h-58zM508 649l412 -2q-129 363 -230 580q-23 -77 -86.5 -270.5t-95.5 -307.5z" />
<glyph unicode="&#xc3;" horiz-adv-x="1559" d="M37 4v61q101 6 142.5 28.5t70.5 78.5q42 85 139 393q206 619 246 778l6 21q5 20 31.5 43t99.5 68l27 -11q137 -352 281 -723.5t178 -456.5q65 -161 106 -192q33 -23 129 -31v-59l-61 -2l-185 10l-213 -10q-47 0 -75 2l-1 61h41q61 2 87 19.5t26 45.5q0 49 -20 99 l-131 332q-92 0 -482 10l-78 -243q-36 -120 -36 -166q0 -95 161 -99v-57h-37l-237 6q-31 0 -215 -6zM467 1620q38 211 197 211q35 0 63 -8l111 -31q28 -8 60.5 -8t53.5 20t35 70h54q-39 -211 -195 -211l-74 12l-108 27q-34 8 -57 8q-61 0 -89 -90h-51zM508 649l412 -2 q-129 363 -230 580q-23 -77 -86.5 -270.5t-95.5 -307.5z" />
<glyph unicode="&#xc4;" horiz-adv-x="1559" d="M37 4v61q101 6 142.5 28.5t70.5 78.5q42 85 139 393q206 619 246 778l6 21q5 20 31.5 43t99.5 68l27 -11q137 -352 281 -723.5t178 -456.5q65 -161 106 -192q33 -23 129 -31v-59l-61 -2l-185 10l-213 -10q-47 0 -75 2l-1 61h41q61 2 87 19.5t26 45.5q0 49 -20 99 l-131 332q-92 0 -482 10l-78 -243q-36 -120 -36 -166q0 -95 161 -99v-57h-37l-237 6q-31 0 -215 -6zM480 1725q0 42 29 72t69 30t70 -30.5t30 -72t-28.5 -70t-71.5 -28.5t-70.5 28.5t-27.5 70.5zM508 649l412 -2q-129 363 -230 580q-23 -77 -86.5 -270.5t-95.5 -307.5z M830 1724.5q0 41.5 30 72t70 30.5t69 -30t29 -72t-27.5 -70.5t-70.5 -28.5t-71.5 28.5t-28.5 70z" />
<glyph unicode="&#xc5;" horiz-adv-x="1559" d="M37 4v61q101 6 142.5 28.5t70.5 78.5q42 85 139 393q206 619 246 778l6 21q5 20 31.5 43t99.5 68l27 -11q137 -352 281 -723.5t178 -456.5q65 -161 106 -192q33 -23 129 -31v-59l-61 -2l-185 10l-213 -10q-47 0 -75 2l-1 61h41q61 2 87 19.5t26 45.5q0 49 -20 99 l-131 332q-92 0 -482 10l-78 -243q-36 -120 -36 -166q0 -95 161 -99v-57h-37l-237 6q-31 0 -215 -6zM508 649l412 -2q-129 363 -230 580q-23 -77 -86.5 -270.5t-95.5 -307.5zM530 1746.5q0 95.5 65.5 160.5t159.5 65t160 -65.5t66 -160t-65.5 -160.5t-160 -66t-160 65.5 t-65.5 161zM623 1748q0 -55 39.5 -95.5t94 -40.5t95.5 40t41 95.5t-40 95t-96.5 39.5t-95 -39.5t-38.5 -94.5z" />
<glyph unicode="&#xc6;" horiz-adv-x="1925" d="M-55 -4v61q116 8 171 63t153 226.5t237 409.5q272 464 272 536q0 66 -175 70l-1 59q16 2 68 2l241 -2l185 -2l170 2h143l238 2h96q2 -20 2 -57l-6 -240h-56v13q0 131 -61 177t-319 46q-132 0 -167.5 -35.5t-35.5 -191.5v-367q64 -4 119 -4l71 2q142 0 191.5 34.5 t66.5 127.5h51q-8 -140 -8 -418h-53q-8 119 -46.5 157t-205.5 38h-35q-81 -3 -151 -7v-405q0 -135 43.5 -178t177.5 -43h246q88 0 134.5 38.5t117.5 192.5l57 -10l-84 -289q-68 -4 -186 -4l-502 10l-387 -14h-27v55q150 2 194 39t44 150v465h-363l-192 -343 q-111 -191 -111 -229q0 -76 150 -76h22v-59h-57l-211 6l-197 -8h-24zM594 766h336v420q0 87 -7 129l-36 8q-55 -135 -137 -281z" />
<glyph unicode="&#xc7;" horiz-adv-x="1589" d="M94 695q0 223 116 398.5t298.5 270t411.5 94.5q263 0 481 -115q2 -49 13 -145.5t13 -142.5l-51 -8q-41 158 -160.5 250t-267.5 92q-283 0 -448 -183q-88 -96 -135.5 -220.5t-47.5 -264.5q0 -290 179 -485q173 -193 465 -193q178 0 290.5 83t149.5 243l59 -15 q-3 -40 -24 -134.5t-29 -145.5q-222 -111 -471 -111q-372 0 -614 236q-110 108 -169 242t-59 254zM602 -371l35 78q129 -72 223 -72q121 0 121 93q0 42 -30 66t-70 24t-74 -6v188h64v-112q19 3 83 4.5t112 -42t48 -123t-58 -126.5t-161 -47t-293 75z" />
<glyph unicode="&#xc8;" horiz-adv-x="1305" d="M63 -4l1 55q144 2 187.5 39t43.5 150v995q0 71 -50.5 102.5t-168.5 34.5v49q61 4 110 4l246 -6l215 2h377l100 2q2 -18 2 -57l-6 -240h-57v13q0 131 -61.5 177t-319.5 46q-132 0 -167.5 -35.5t-35.5 -191.5v-342q84 -7 121 -7l70 2q142 0 191 34.5t67 127.5h51 q-8 -140 -8 -430h-53q-8 118 -45 155.5t-195 37.5h-45q-47 0 -148 -4h-6v-416q0 -134 44 -177.5t179 -43.5h244q88 0 134.5 38.5t117.5 192.5l57 -10l-84 -289q-66 -4 -186 -4l-502 10l-393 -14h-27zM403 1854q0 36 20.5 55.5t55.5 19.5t94 -59l289 -299h-67l-330 207 q-62 40 -62 76z" />
<glyph unicode="&#xc9;" horiz-adv-x="1305" d="M63 -4l1 55q144 2 187.5 39t43.5 150v995q0 71 -50.5 102.5t-168.5 34.5v49q61 4 110 4l246 -6l215 2h377l100 2q2 -18 2 -57l-6 -240h-57v13q0 131 -61.5 177t-319.5 46q-132 0 -167.5 -35.5t-35.5 -191.5v-342q84 -7 121 -7l70 2q142 0 191 34.5t67 127.5h51 q-8 -140 -8 -430h-53q-8 118 -45 155.5t-195 37.5h-45q-47 0 -148 -4h-6v-416q0 -134 44 -177.5t179 -43.5h244q88 0 134.5 38.5t117.5 192.5l57 -10l-84 -289q-66 -4 -186 -4l-502 10l-393 -14h-27zM510 1571l289 299q59 59 94 59t55.5 -19.5t20.5 -55.5t-62 -76l-330 -207 h-67z" />
<glyph unicode="&#xca;" horiz-adv-x="1305" d="M63 -4l1 55q144 2 187.5 39t43.5 150v995q0 71 -50.5 102.5t-168.5 34.5v49q61 4 110 4l246 -6l215 2h377l100 2q2 -18 2 -57l-6 -240h-57v13q0 131 -61.5 177t-319.5 46q-132 0 -167.5 -35.5t-35.5 -191.5v-342q84 -7 121 -7l70 2q142 0 191 34.5t67 127.5h51 q-8 -140 -8 -430h-53q-8 118 -45 155.5t-195 37.5h-45q-47 0 -148 -4h-6v-416q0 -134 44 -177.5t179 -43.5h244q88 0 134.5 38.5t117.5 192.5l57 -10l-84 -289q-66 -4 -186 -4l-502 10l-393 -14h-27zM395 1571l232 350h118l232 -350h-58l-233 211l-233 -211h-58z" />
<glyph unicode="&#xcb;" horiz-adv-x="1305" d="M63 -4l1 55q144 2 187.5 39t43.5 150v995q0 71 -50.5 102.5t-168.5 34.5v49q61 4 110 4l246 -6l215 2h377l100 2q2 -18 2 -57l-6 -240h-57v13q0 131 -61.5 177t-319.5 46q-132 0 -167.5 -35.5t-35.5 -191.5v-342q84 -7 121 -7l70 2q142 0 191 34.5t67 127.5h51 q-8 -140 -8 -430h-53q-8 118 -45 155.5t-195 37.5h-45q-47 0 -148 -4h-6v-416q0 -134 44 -177.5t179 -43.5h244q88 0 134.5 38.5t117.5 192.5l57 -10l-84 -289q-66 -4 -186 -4l-502 10l-393 -14h-27zM412 1725q0 42 29 72t69 30t70 -30.5t30 -72t-28.5 -70t-71.5 -28.5 t-70.5 28.5t-27.5 70.5zM762 1724.5q0 41.5 30 72t70 30.5t69 -30t29 -72t-27.5 -70.5t-70.5 -28.5t-71.5 28.5t-28.5 70z" />
<glyph unicode="&#xcc;" horiz-adv-x="807" d="M94 65q133 4 172 33t39 133v992q0 75 -43 104.5t-165 34.5l-1 59h35l299 -8h35l262 8v-61q-149 -7 -191 -31.5t-42 -89.5v-1032q0 -85 32 -113t136 -28h38v-62q-38 -2 -104 -2l-211 4l-195 -4q-59 0 -95 2zM120 1854q0 36 20.5 55.5t55.5 19.5t94 -59l289 -299h-67 l-330 207q-62 40 -62 76z" />
<glyph unicode="&#xcd;" horiz-adv-x="807" d="M94 65q133 4 172 33t39 133v992q0 75 -43 104.5t-165 34.5l-1 59h35l299 -8h35l262 8v-61q-149 -7 -191 -31.5t-42 -89.5v-1032q0 -85 32 -113t136 -28h38v-62q-38 -2 -104 -2l-211 4l-195 -4q-59 0 -95 2zM227 1571l289 299q59 59 94 59t55.5 -19.5t20.5 -55.5t-62 -76 l-330 -207h-67z" />
<glyph unicode="&#xce;" horiz-adv-x="807" d="M94 65q133 4 172 33t39 133v992q0 75 -43 104.5t-165 34.5l-1 59h35l299 -8h35l262 8v-61q-149 -7 -191 -31.5t-42 -89.5v-1032q0 -85 32 -113t136 -28h38v-62q-38 -2 -104 -2l-211 4l-195 -4q-59 0 -95 2zM112 1571l232 350h118l232 -350h-58l-233 211l-233 -211h-58z " />
<glyph unicode="&#xcf;" horiz-adv-x="807" d="M94 65q133 4 172 33t39 133v992q0 75 -43 104.5t-165 34.5l-1 59h35l299 -8h35l262 8v-61q-149 -7 -191 -31.5t-42 -89.5v-1032q0 -85 32 -113t136 -28h38v-62q-38 -2 -104 -2l-211 4l-195 -4q-59 0 -95 2zM129 1725q0 42 29 72t69 30t70 -30.5t30 -72t-28.5 -70 t-71.5 -28.5t-70.5 28.5t-27.5 70.5zM479 1724.5q0 41.5 30 72t70 30.5t69 -30t29 -72t-27.5 -70.5t-70.5 -28.5t-71.5 28.5t-28.5 70z" />
<glyph unicode="&#xd0;" horiz-adv-x="1704" d="M18 721v78h295v430q0 69 -33 96t-118 27q-17 0 -45.5 -2t-32.5 -2v55q381 55 594 55q636 0 840 -416q71 -145 71 -315q0 -329 -220.5 -528t-584.5 -199l-333 10l-365 -10v61q149 11 188 43.5t39 124.5v492h-295zM500 276q0 -98 70 -150t202 -52q281 0 445.5 178 t164.5 483q0 266 -153 436q-191 213 -488 213q-145 0 -193 -31.5t-48 -121.5v-432h393v-78h-393v-445z" />
<glyph unicode="&#xd1;" horiz-adv-x="1774" d="M16 1360l1 61q20 2 66.5 2t169 -3.5t200.5 -4.5q77 -92 226 -272q492 -595 728 -834v928q0 68 -37 94.5t-137 26.5h-31v59q48 4 84 4l191 -6l182 6l57 -2v-61q-97 -4 -136 -14.5t-56 -32.5q-16 -23 -22.5 -117.5t-6.5 -384.5v-127l8 -737v-35h-18q-30 51 -1120 1307v-981 q0 -99 42.5 -137t155.5 -38h10v-59q-26 -2 -67 -2l-174 6l-172 -6h-84v61q115 7 156.5 42.5t41.5 125.5v1014q-49 64 -101.5 91.5t-123.5 27.5zM596 1620q38 211 197 211q35 0 63 -8l111 -31q28 -8 60.5 -8t53.5 20t35 70h54q-39 -211 -195 -211l-74 12l-108 27q-34 8 -57 8 q-61 0 -89 -90h-51z" />
<glyph unicode="&#xd2;" horiz-adv-x="1815" d="M115 690q0 299 207 524q226 246 585 246q311 0 535 -196q118 -105 184 -241t66 -282.5t-60.5 -285t-178 -253.5t-269.5 -178t-309 -63q-312 0 -525 197q-114 105 -174.5 243t-60.5 289zM332 736.5q0 -303.5 160.5 -500.5t413.5 -197t412 177t159 460q0 188 -78 354.5 t-216 261t-315 94.5q-242 0 -389 -173t-147 -476.5zM624 1854q0 36 20.5 55.5t55.5 19.5t94 -59l289 -299h-67l-330 207q-62 40 -62 76z" />
<glyph unicode="&#xd3;" horiz-adv-x="1815" d="M115 690q0 299 207 524q226 246 585 246q311 0 535 -196q118 -105 184 -241t66 -282.5t-60.5 -285t-178 -253.5t-269.5 -178t-309 -63q-312 0 -525 197q-114 105 -174.5 243t-60.5 289zM332 736.5q0 -303.5 160.5 -500.5t413.5 -197t412 177t159 460q0 188 -78 354.5 t-216 261t-315 94.5q-242 0 -389 -173t-147 -476.5zM731 1571l289 299q59 59 94 59t55.5 -19.5t20.5 -55.5t-62 -76l-330 -207h-67z" />
<glyph unicode="&#xd4;" horiz-adv-x="1815" d="M115 690q0 299 207 524q226 246 585 246q311 0 535 -196q118 -105 184 -241t66 -282.5t-60.5 -285t-178 -253.5t-269.5 -178t-309 -63q-312 0 -525 197q-114 105 -174.5 243t-60.5 289zM332 736.5q0 -303.5 160.5 -500.5t413.5 -197t412 177t159 460q0 188 -78 354.5 t-216 261t-315 94.5q-242 0 -389 -173t-147 -476.5zM616 1571l232 350h118l232 -350h-58l-233 211l-233 -211h-58z" />
<glyph unicode="&#xd5;" horiz-adv-x="1815" d="M115 690q0 299 207 524q226 246 585 246q311 0 535 -196q118 -105 184 -241t66 -282.5t-60.5 -285t-178 -253.5t-269.5 -178t-309 -63q-312 0 -525 197q-114 105 -174.5 243t-60.5 289zM332 736.5q0 -303.5 160.5 -500.5t413.5 -197t412 177t159 460q0 188 -78 354.5 t-216 261t-315 94.5q-242 0 -389 -173t-147 -476.5zM620 1620q38 211 197 211q35 0 63 -8l111 -31q28 -8 60.5 -8t53.5 20t35 70h54q-39 -211 -195 -211l-74 12l-108 27q-34 8 -57 8q-61 0 -89 -90h-51z" />
<glyph unicode="&#xd6;" horiz-adv-x="1815" d="M115 690q0 299 207 524q226 246 585 246q311 0 535 -196q118 -105 184 -241t66 -282.5t-60.5 -285t-178 -253.5t-269.5 -178t-309 -63q-312 0 -525 197q-114 105 -174.5 243t-60.5 289zM332 736.5q0 -303.5 160.5 -500.5t413.5 -197t412 177t159 460q0 188 -78 354.5 t-216 261t-315 94.5q-242 0 -389 -173t-147 -476.5zM633 1725q0 42 29 72t69 30t70 -30.5t30 -72t-28.5 -70t-71.5 -28.5t-70.5 28.5t-27.5 70.5zM983 1724.5q0 41.5 30 72t70 30.5t69 -30t29 -72t-27.5 -70.5t-70.5 -28.5t-71.5 28.5t-28.5 70z" />
<glyph unicode="&#xd7;" horiz-adv-x="1706" d="M301 135l475 475l-475 477l80 82l477 -477l475 477l82 -82l-475 -477l475 -475l-82 -82l-475 475l-477 -475z" />
<glyph unicode="&#xd8;" horiz-adv-x="1815" d="M84 27l197 198q-166 231 -166 469q0 298 204 518q234 248 590 248q273 0 500 -168l168 162l59 -55l-168 -160q224 -222 224 -491q0 -315 -236 -543q-120 -118 -272 -181t-318 -63q-301 0 -526 207l-203 -201zM332 758q0 -238 94 -422l866 860q-176 190 -420.5 190 t-392 -171.5t-147.5 -456.5zM467 279q72 -116 187 -178t257 -62q250 0 408 178t158 463q0 242 -138 453z" />
<glyph unicode="&#xd9;" horiz-adv-x="1726" d="M82 1366v59l291 -10l252 6q49 0 73 -2v-61h-22q-103 0 -148 -28.5t-45 -92.5v-586q0 -194 14 -281.5t55.5 -150t132.5 -100t220 -37.5q229 0 337 119.5t108 371.5v668q0 69 -35 94.5t-145 30.5l-1 59h48l188 -6l252 4l-1 -61q-137 -7 -172.5 -30.5t-35.5 -92.5v-659 q0 -312 -142.5 -464.5t-433.5 -152.5q-577 0 -577 488v684q0 145 -41 186.5t-172 44.5zM632 1854q0 36 20.5 55.5t55.5 19.5t94 -59l289 -299h-67l-330 207q-62 40 -62 76z" />
<glyph unicode="&#xda;" horiz-adv-x="1726" d="M82 1366v59l291 -10l252 6q49 0 73 -2v-61h-22q-103 0 -148 -28.5t-45 -92.5v-586q0 -194 14 -281.5t55.5 -150t132.5 -100t220 -37.5q229 0 337 119.5t108 371.5v668q0 69 -35 94.5t-145 30.5l-1 59h48l188 -6l252 4l-1 -61q-137 -7 -172.5 -30.5t-35.5 -92.5v-659 q0 -312 -142.5 -464.5t-433.5 -152.5q-577 0 -577 488v684q0 145 -41 186.5t-172 44.5zM739 1571l289 299q59 59 94 59t55.5 -19.5t20.5 -55.5t-62 -76l-330 -207h-67z" />
<glyph unicode="&#xdb;" horiz-adv-x="1726" d="M82 1366v59l291 -10l252 6q49 0 73 -2v-61h-22q-103 0 -148 -28.5t-45 -92.5v-586q0 -194 14 -281.5t55.5 -150t132.5 -100t220 -37.5q229 0 337 119.5t108 371.5v668q0 69 -35 94.5t-145 30.5l-1 59h48l188 -6l252 4l-1 -61q-137 -7 -172.5 -30.5t-35.5 -92.5v-659 q0 -312 -142.5 -464.5t-433.5 -152.5q-577 0 -577 488v684q0 145 -41 186.5t-172 44.5zM624 1571l232 350h118l232 -350h-58l-233 211l-233 -211h-58z" />
<glyph unicode="&#xdc;" horiz-adv-x="1726" d="M82 1366v59l291 -10l252 6q49 0 73 -2v-61h-22q-103 0 -148 -28.5t-45 -92.5v-586q0 -194 14 -281.5t55.5 -150t132.5 -100t220 -37.5q229 0 337 119.5t108 371.5v668q0 69 -35 94.5t-145 30.5l-1 59h48l188 -6l252 4l-1 -61q-137 -7 -172.5 -30.5t-35.5 -92.5v-659 q0 -312 -142.5 -464.5t-433.5 -152.5q-577 0 -577 488v684q0 145 -41 186.5t-172 44.5zM641 1725q0 42 29 72t69 30t70 -30.5t30 -72t-28.5 -70t-71.5 -28.5t-70.5 28.5t-27.5 70.5zM991 1724.5q0 41.5 30 72t70 30.5t69 -30t29 -72t-27.5 -70.5t-70.5 -28.5t-71.5 28.5 t-28.5 70z" />
<glyph unicode="&#xdd;" horiz-adv-x="1413" d="M-25 1362v61h27l256 -10l252 6h39v-59l-82 -4q-72 -4 -72 -45q0 -32 102 -175t263 -331l323 440q25 35 25 59q0 46 -66 52l-102 10v51q24 2 68 2l168 -4l204 6v-57q-61 -5 -92.5 -18t-63.5 -49q-56 -63 -433 -574v-504q0 -97 38 -127.5t172 -32.5v-59q-317 12 -599 -10 l-1 59q135 8 174 37t39 109v440q0 77 -153 272q-93 116 -170 226q-161 229 -297 229h-19zM531 1571l289 299q59 59 94 59t55.5 -19.5t20.5 -55.5t-62 -76l-330 -207h-67z" />
<glyph unicode="&#xde;" horiz-adv-x="1243" d="M68 2v61q149 10 188 44t39 147v987q0 63 -42.5 88.5t-166.5 32.5v59l307 -10l283 10v-61q-106 -5 -151.5 -32t-45.5 -85v-127h51q213 0 330 -43q148 -58 231 -155.5t83 -212.5q0 -171 -125.5 -281.5t-323.5 -110.5q-49 0 -102 11v47h24q156 0 243 86t87 236.5t-104 250.5 t-259 100q-73 0 -104 -23t-31 -77v-686q0 -128 38.5 -162.5t162.5 -40.5v-55l-37 2l-301 8z" />
<glyph unicode="&#xdf;" horiz-adv-x="1184" d="M92 0v51h10q86 0 116 28.5t30 117.5v473q0 68 -29.5 92.5t-114.5 26.5v32q73 24 106.5 67.5t47 149t21.5 138.5q46 193 158.5 302t264.5 109q116 0 190.5 -70t74.5 -178q0 -127 -147 -293q-89 -101 -89 -167t104 -183q149 -166 191.5 -254t42.5 -174q0 -123 -78.5 -207 t-176 -84t-153 44.5t-55.5 95t22 74.5t54 24t50 -17t18 -44l-2 -45q0 -72 73 -72q57 0 96 45.5t39 110t-32 129.5q-46 91 -179 240.5t-133 231t91 201.5q82 108 109.5 173.5t27.5 121.5q0 95 -56.5 158t-140.5 63q-116 0 -182 -109.5t-66 -303.5v-877q0 -110 20 -138t79 -28 h26v-55q-74 4 -161 4t-267 -4z" />
<glyph unicode="&#xe0;" horiz-adv-x="870" d="M72 206q0 105 403 244l55 19v164q0 147 -174 147q-62 0 -103.5 -26t-41.5 -54.5t8 -44.5l-118 -67q-13 35 -13 65q0 63 96 121l226 133q137 -12 201.5 -70.5t64.5 -170.5v-453q0 -75 12 -95t45 -20q50 0 80 66l29 -12q-17 -85 -63.5 -130t-116.5 -45q-130 0 -130 162v15 q-154 -177 -294 -177q-77 0 -121.5 62t-44.5 167zM141 1299q0 36 20.5 55.5t55.5 19.5t94 -59l289 -299h-67l-330 207q-62 40 -62 76zM217 221q0 -62 31 -103.5t78 -41.5q83 0 204 135v215l-9 -4q-304 -120 -304 -201z" />
<glyph unicode="&#xe1;" horiz-adv-x="870" d="M72 206q0 105 403 244l55 19v164q0 147 -174 147q-62 0 -103.5 -26t-41.5 -54.5t8 -44.5l-118 -67q-13 35 -13 65q0 63 96 121l226 133q137 -12 201.5 -70.5t64.5 -170.5v-453q0 -75 12 -95t45 -20q50 0 80 66l29 -12q-17 -85 -63.5 -130t-116.5 -45q-130 0 -130 162v15 q-154 -177 -294 -177q-77 0 -121.5 62t-44.5 167zM217 221q0 -62 31 -103.5t78 -41.5q83 0 204 135v215l-9 -4q-304 -120 -304 -201zM248 1016l289 299q59 59 94 59t55.5 -19.5t20.5 -55.5t-62 -76l-330 -207h-67z" />
<glyph unicode="&#xe2;" horiz-adv-x="870" d="M72 206q0 105 403 244l55 19v164q0 147 -174 147q-62 0 -103.5 -26t-41.5 -54.5t8 -44.5l-118 -67q-13 35 -13 65q0 63 96 121l226 133q137 -12 201.5 -70.5t64.5 -170.5v-453q0 -75 12 -95t45 -20q50 0 80 66l29 -12q-17 -85 -63.5 -130t-116.5 -45q-130 0 -130 162v15 q-154 -177 -294 -177q-77 0 -121.5 62t-44.5 167zM133 1016l232 350h118l232 -350h-58l-233 211l-233 -211h-58zM217 221q0 -62 31 -103.5t78 -41.5q83 0 204 135v215l-9 -4q-304 -120 -304 -201z" />
<glyph unicode="&#xe3;" horiz-adv-x="870" d="M72 206q0 105 403 244l55 19v164q0 147 -174 147q-62 0 -103.5 -26t-41.5 -54.5t8 -44.5l-118 -67q-13 35 -13 65q0 63 96 121l226 133q137 -12 201.5 -70.5t64.5 -170.5v-453q0 -75 12 -95t45 -20q50 0 80 66l29 -12q-17 -85 -63.5 -130t-116.5 -45q-130 0 -130 162v15 q-154 -177 -294 -177q-77 0 -121.5 62t-44.5 167zM137 1065q38 211 197 211q35 0 63 -8l111 -31q28 -8 60.5 -8t53.5 20t35 70h54q-39 -211 -195 -211l-74 12l-108 27q-34 8 -57 8q-61 0 -89 -90h-51zM217 221q0 -62 31 -103.5t78 -41.5q83 0 204 135v215l-9 -4 q-304 -120 -304 -201z" />
<glyph unicode="&#xe4;" horiz-adv-x="870" d="M72 206q0 105 403 244l55 19v164q0 147 -174 147q-62 0 -103.5 -26t-41.5 -54.5t8 -44.5l-118 -67q-13 35 -13 65q0 63 96 121l226 133q137 -12 201.5 -70.5t64.5 -170.5v-453q0 -75 12 -95t45 -20q50 0 80 66l29 -12q-17 -85 -63.5 -130t-116.5 -45q-130 0 -130 162v15 q-154 -177 -294 -177q-77 0 -121.5 62t-44.5 167zM150 1170q0 42 29 72t69 30t70 -30.5t30 -72t-28.5 -70t-71.5 -28.5t-70.5 28.5t-27.5 70.5zM217 221q0 -62 31 -103.5t78 -41.5q83 0 204 135v215l-9 -4q-304 -120 -304 -201zM500 1169.5q0 41.5 30 72t70 30.5t69 -30 t29 -72t-27.5 -70.5t-70.5 -28.5t-71.5 28.5t-28.5 70z" />
<glyph unicode="&#xe5;" horiz-adv-x="870" d="M72 206q0 105 403 244l55 19v164q0 147 -174 147q-62 0 -103.5 -26t-41.5 -54.5t8 -44.5l-118 -67q-13 35 -13 65q0 63 96 121l226 133q137 -12 201.5 -70.5t64.5 -170.5v-453q0 -75 12 -95t45 -20q50 0 80 66l29 -12q-17 -85 -63.5 -130t-116.5 -45q-130 0 -130 162v15 q-154 -177 -294 -177q-77 0 -121.5 62t-44.5 167zM205 1222.5q0 95.5 65.5 161.5t159.5 66t160.5 -67t66.5 -160.5t-66 -159.5t-161 -66t-160 65t-65 160.5zM217 221q0 -62 31 -103.5t78 -41.5q83 0 204 135v215l-9 -4q-304 -120 -304 -201zM299 1224.5q0 -55.5 39 -94 t94.5 -38.5t94 38t38.5 93t-39 94t-94 39t-94 -38t-39 -93.5z" />
<glyph unicode="&#xe6;" horiz-adv-x="1251" d="M70 207q0 89 262 195q108 44 174 73v158q0 151 -164 151q-59 0 -94 -26t-35 -70q0 -17 6 -37l-135 -57l-4 29q0 81 102 151l193 135q134 -17 195 -66.5t61 -142.5v-10q102 219 325 219q108 0 170 -55t62 -149l-2 -37q-329 -105 -535 -189v-131q0 -115 67 -182.5 t181 -67.5q174 0 272 144l39 -19q-55 -119 -153.5 -182.5t-229.5 -63.5q-219 0 -305 185q-94 -103 -160 -144t-136 -41t-113 62t-43 168zM211 213.5q0 -54.5 29.5 -96t72.5 -41.5q85 0 193 135v215q-201 -84 -248 -121t-47 -91.5zM655 530l148 56q129 49 165 81t36 78 q0 99 -103.5 99t-170 -86t-75.5 -228z" />
<glyph unicode="&#xe7;" horiz-adv-x="913" d="M94 425q0 200 131.5 340t327.5 140q115 0 189.5 -46t74.5 -114q0 -34 -21 -54.5t-63 -20.5t-97 75l-15 21q-54 68 -129 68q-111 0 -182.5 -95t-71.5 -250.5t93 -267.5t227.5 -112t258.5 151l33 -27q-157 -258 -379 -258q-161 0 -269 125t-108 325zM233 -371l35 78 q129 -72 223 -72q121 0 121 93q0 42 -30 66t-70 24t-74 -6v188h64v-112q19 3 83 4.5t112 -42t48 -123t-58 -126.5t-161 -47t-293 75z" />
<glyph unicode="&#xe8;" horiz-adv-x="913" d="M94 407.5q0 199.5 122 348.5t294 149q138 0 223.5 -86.5t85.5 -226.5q0 -35 -2 -51h-573l-6 -68q0 -157 91 -266t216 -109t252 125l28 -30q-152 -216 -358 -216q-165 0 -269 115.5t-104 315zM202 1299q0 36 20.5 55.5t55.5 19.5t94 -59l289 -299h-67l-330 207 q-62 40 -62 76zM252 598h315q48 0 68 18.5t20 76.5t-48.5 105.5t-128 47.5t-142 -67.5t-84.5 -180.5z" />
<glyph unicode="&#xe9;" horiz-adv-x="913" d="M94 407.5q0 199.5 122 348.5t294 149q138 0 223.5 -86.5t85.5 -226.5q0 -35 -2 -51h-573l-6 -68q0 -157 91 -266t216 -109t252 125l28 -30q-152 -216 -358 -216q-165 0 -269 115.5t-104 315zM252 598h315q48 0 68 18.5t20 76.5t-48.5 105.5t-128 47.5t-142 -67.5 t-84.5 -180.5zM309 1016l289 299q59 59 94 59t55.5 -19.5t20.5 -55.5t-62 -76l-330 -207h-67z" />
<glyph unicode="&#xea;" horiz-adv-x="913" d="M94 407.5q0 199.5 122 348.5t294 149q138 0 223.5 -86.5t85.5 -226.5q0 -35 -2 -51h-573l-6 -68q0 -157 91 -266t216 -109t252 125l28 -30q-152 -216 -358 -216q-165 0 -269 115.5t-104 315zM194 1016l232 350h118l232 -350h-58l-233 211l-233 -211h-58zM252 598h315 q48 0 68 18.5t20 76.5t-48.5 105.5t-128 47.5t-142 -67.5t-84.5 -180.5z" />
<glyph unicode="&#xeb;" horiz-adv-x="913" d="M94 407.5q0 199.5 122 348.5t294 149q138 0 223.5 -86.5t85.5 -226.5q0 -35 -2 -51h-573l-6 -68q0 -157 91 -266t216 -109t252 125l28 -30q-152 -216 -358 -216q-165 0 -269 115.5t-104 315zM211 1170q0 42 29 72t69 30t70 -30.5t30 -72t-28.5 -70t-71.5 -28.5 t-70.5 28.5t-27.5 70.5zM252 598h315q48 0 68 18.5t20 76.5t-48.5 105.5t-128 47.5t-142 -67.5t-84.5 -180.5zM561 1169.5q0 41.5 30 72t70 30.5t69 -30t29 -72t-27.5 -70.5t-70.5 -28.5t-71.5 28.5t-28.5 70z" />
<glyph unicode="&#xec;" horiz-adv-x="547" d="M-2 1299q0 36 20.5 55.5t55.5 19.5t94 -59l289 -299h-67l-330 207q-62 40 -62 76zM57 51q93 11 120.5 32t27.5 71v497q0 48 -23.5 72.5t-91.5 44.5v35q43 12 209 79l57 23v-758q0 -54 28 -74.5t111 -23.5l1 -49q-191 15 -438 -2z" />
<glyph unicode="&#xed;" horiz-adv-x="547" d="M57 51q93 11 120.5 32t27.5 71v497q0 48 -23.5 72.5t-91.5 44.5v35q43 12 209 79l57 23v-758q0 -54 28 -74.5t111 -23.5l1 -49q-191 15 -438 -2zM105 1016l289 299q59 59 94 59t55.5 -19.5t20.5 -55.5t-62 -76l-330 -207h-67z" />
<glyph unicode="&#xee;" horiz-adv-x="547" d="M-10 1016l232 350h118l232 -350h-58l-233 211l-233 -211h-58zM57 51q93 11 120.5 32t27.5 71v497q0 48 -23.5 72.5t-91.5 44.5v35q43 12 209 79l57 23v-758q0 -54 28 -74.5t111 -23.5l1 -49q-191 15 -438 -2z" />
<glyph unicode="&#xef;" horiz-adv-x="547" d="M7 1170q0 42 29 72t69 30t70 -30.5t30 -72t-28.5 -70t-71.5 -28.5t-70.5 28.5t-27.5 70.5zM57 51q93 11 120.5 32t27.5 71v497q0 48 -23.5 72.5t-91.5 44.5v35q43 12 209 79l57 23v-758q0 -54 28 -74.5t111 -23.5l1 -49q-191 15 -438 -2zM357 1169.5q0 41.5 30 72 t70 30.5t69 -30t29 -72t-27.5 -70.5t-70.5 -28.5t-71.5 28.5t-28.5 70z" />
<glyph unicode="&#xf0;" horiz-adv-x="1124" d="M94 429.5q0 194.5 136.5 335t328.5 140.5q62 0 162 -26l-174 323l-305 -131l-29 55l303 134l-67 126q-36 68 -93 68q-20 0 -106 -39l-23 41l250 131l160 -282l270 116l29 -57l-270 -113l180 -321q97 -173 134.5 -284t37.5 -208q0 -186 -123 -311q-152 -152 -346.5 -152 t-324.5 130t-130 324.5zM268 460q0 -180 85.5 -299.5t214 -119.5t207.5 98t79 278t-84.5 302.5t-216 122.5t-208.5 -101t-77 -281z" />
<glyph unicode="&#xf1;" horiz-adv-x="1128" d="M57 51q93 11 120.5 32t27.5 71v497q0 48 -23.5 72.5t-91.5 44.5v35q118 36 250 102l12 -8v-172q193 164 340 164q135 0 201 -96q22 -30 31.5 -68t9.5 -115v-467q0 -54 27 -73t106 -19v-51q-106 6 -204 6t-232 -6v51q96 0 123.5 21t27.5 94v414q0 196 -161 196 q-122 0 -269 -112v-517q0 -54 28 -74t111 -22v-51q-114 6 -207.5 6t-225.5 -6zM266 1065q38 211 197 211q35 0 63 -8l111 -31q28 -8 60.5 -8t53.5 20t35 70h54q-39 -211 -195 -211l-74 12l-108 27q-34 8 -57 8q-61 0 -89 -90h-51z" />
<glyph unicode="&#xf2;" horiz-adv-x="1124" d="M94 431q0 196 137.5 335t334 139t329.5 -138t133 -322.5t-133 -317.5q-148 -152 -344.5 -152t-326.5 130t-130 326zM268 460.5q0 -179.5 85.5 -299.5t214 -120t207.5 98t79 278t-84.5 302.5t-216 122.5t-208.5 -101t-77 -280.5zM280 1299q0 36 20.5 55.5t55.5 19.5 t94 -59l289 -299h-67l-330 207q-62 40 -62 76z" />
<glyph unicode="&#xf3;" horiz-adv-x="1124" d="M94 431q0 196 137.5 335t334 139t329.5 -138t133 -322.5t-133 -317.5q-148 -152 -344.5 -152t-326.5 130t-130 326zM268 460.5q0 -179.5 85.5 -299.5t214 -120t207.5 98t79 278t-84.5 302.5t-216 122.5t-208.5 -101t-77 -280.5zM387 1016l289 299q59 59 94 59t55.5 -19.5 t20.5 -55.5t-62 -76l-330 -207h-67z" />
<glyph unicode="&#xf4;" horiz-adv-x="1124" d="M94 431q0 196 137.5 335t334 139t329.5 -138t133 -322.5t-133 -317.5q-148 -152 -344.5 -152t-326.5 130t-130 326zM268 460.5q0 -179.5 85.5 -299.5t214 -120t207.5 98t79 278t-84.5 302.5t-216 122.5t-208.5 -101t-77 -280.5zM272 1016l232 350h118l232 -350h-58 l-233 211l-233 -211h-58z" />
<glyph unicode="&#xf5;" horiz-adv-x="1124" d="M94 431q0 196 137.5 335t334 139t329.5 -138t133 -322.5t-133 -317.5q-148 -152 -344.5 -152t-326.5 130t-130 326zM268 460.5q0 -179.5 85.5 -299.5t214 -120t207.5 98t79 278t-84.5 302.5t-216 122.5t-208.5 -101t-77 -280.5zM276 1065q38 211 197 211q35 0 63 -8 l111 -31q28 -8 60.5 -8t53.5 20t35 70h54q-39 -211 -195 -211l-74 12l-108 27q-34 8 -57 8q-61 0 -89 -90h-51z" />
<glyph unicode="&#xf6;" horiz-adv-x="1124" d="M94 431q0 196 137.5 335t334 139t329.5 -138t133 -322.5t-133 -317.5q-148 -152 -344.5 -152t-326.5 130t-130 326zM268 460.5q0 -179.5 85.5 -299.5t214 -120t207.5 98t79 278t-84.5 302.5t-216 122.5t-208.5 -101t-77 -280.5zM289 1170q0 42 29 72t69 30t70 -30.5 t30 -72t-28.5 -70t-71.5 -28.5t-70.5 28.5t-27.5 70.5zM639 1169.5q0 41.5 30 72t70 30.5t69 -30t29 -72t-27.5 -70.5t-70.5 -28.5t-71.5 28.5t-28.5 70z" />
<glyph unicode="&#xf7;" horiz-adv-x="1706" d="M254 553v117h1198v-117h-1198zM739 250q0 48 34 81.5t81 33.5t81 -34t34 -81t-33.5 -81t-81.5 -34t-81.5 33.5t-33.5 81.5zM739 970.5q0 47.5 34 81t81.5 33.5t81 -33.5t33.5 -81t-33.5 -81t-82 -33.5t-81.5 33.5t-33 81z" />
<glyph unicode="&#xf8;" horiz-adv-x="1124" d="M43 8l145 137q-94 117 -94 299.5t138 321.5t337 139q159 0 303 -114l123 118l45 -43l-127 -121q115 -137 115 -292q0 -193 -133 -326q-152 -152 -339.5 -152t-326.5 123l-143 -135zM268 475q0 -108 35 -227l477 457q-87 137 -222 137t-212.5 -100.5t-77.5 -266.5z M330 197q90 -156 241 -156q125 0 204 98t79 256q0 150 -47 256z" />
<glyph unicode="&#xf9;" horiz-adv-x="1100" d="M39 807v47h16q46 0 141 16t138 20v-544q0 -250 196 -250q93 0 220 107v504q0 55 -34 77.5t-120 24.5v45q159 6 301 37v-635q0 -92 11 -113.5t42 -21.5l84 8v-39q-101 -31 -260 -115l-20 17q6 68 6 155l-101 -84q-106 -88 -221 -88q-252 0 -252 293v381q0 99 -27.5 127 t-119.5 31zM241 1299q0 36 20.5 55.5t55.5 19.5t94 -59l289 -299h-67l-330 207q-62 40 -62 76z" />
<glyph unicode="&#xfa;" horiz-adv-x="1100" d="M39 807v47h16q46 0 141 16t138 20v-544q0 -250 196 -250q93 0 220 107v504q0 55 -34 77.5t-120 24.5v45q159 6 301 37v-635q0 -92 11 -113.5t42 -21.5l84 8v-39q-101 -31 -260 -115l-20 17q6 68 6 155l-101 -84q-106 -88 -221 -88q-252 0 -252 293v381q0 99 -27.5 127 t-119.5 31zM348 1016l289 299q59 59 94 59t55.5 -19.5t20.5 -55.5t-62 -76l-330 -207h-67z" />
<glyph unicode="&#xfb;" horiz-adv-x="1100" d="M39 807v47h16q46 0 141 16t138 20v-544q0 -250 196 -250q93 0 220 107v504q0 55 -34 77.5t-120 24.5v45q159 6 301 37v-635q0 -92 11 -113.5t42 -21.5l84 8v-39q-101 -31 -260 -115l-20 17q6 68 6 155l-101 -84q-106 -88 -221 -88q-252 0 -252 293v381q0 99 -27.5 127 t-119.5 31zM233 1016l232 350h118l232 -350h-58l-233 211l-233 -211h-58z" />
<glyph unicode="&#xfc;" horiz-adv-x="1100" d="M39 807v47h16q46 0 141 16t138 20v-544q0 -250 196 -250q93 0 220 107v504q0 55 -34 77.5t-120 24.5v45q159 6 301 37v-635q0 -92 11 -113.5t42 -21.5l84 8v-39q-101 -31 -260 -115l-20 17q6 68 6 155l-101 -84q-106 -88 -221 -88q-252 0 -252 293v381q0 99 -27.5 127 t-119.5 31zM250 1170q0 42 29 72t69 30t70 -30.5t30 -72t-28.5 -70t-71.5 -28.5t-70.5 28.5t-27.5 70.5zM600 1169.5q0 41.5 30 72t70 30.5t69 -30t29 -72t-27.5 -70.5t-70.5 -28.5t-71.5 28.5t-28.5 70z" />
<glyph unicode="&#xfd;" horiz-adv-x="1051" d="M0 829v51q16 3 61 3l211 -9l205 7v-52l-84 -8q-61 -6 -61 -43q0 -12 24 -82l193 -495l225 501q17 34 18 65t-31 46t-106 19l1 49q18 2 46 2l154 -6l143 6q31 0 51 -2l1 -49q-70 -2 -110 -25t-69 -73q-82 -143 -319 -675l-5 -11q-258 -574 -386 -574q-41 0 -66.5 23 t-25.5 59.5t22.5 60t57.5 23.5l53 -5q89 0 258 369l4 8l-246 627q-53 132 -90 161t-109 29h-20zM350 1016l289 299q59 59 94 59t55.5 -19.5t20.5 -55.5t-62 -76l-330 -207h-67z" />
<glyph unicode="&#xfe;" horiz-adv-x="1098" d="M16 -518l1 47q103 6 135 39.5t32 150.5v1543q0 83 -23.5 118.5t-90.5 59.5v28q154 60 262 119v-819q134 76 201.5 101.5t121.5 25.5q144 0 248.5 -120.5t104.5 -284.5t-71 -273t-220 -182q-116 -55 -277 -55h-66q-22 0 -42 1v-288q0 -115 32 -140t158 -32v-47h-22 l-269 12l-176 -4h-39zM332 252q0 -93 20 -119.5t79 -45.5t126 -19q129 0 209 94.5t80 253t-86.5 260.5t-220.5 102q-95 0 -207 -63v-463z" />
<glyph unicode="&#xff;" horiz-adv-x="1051" d="M0 829v51q16 3 61 3l211 -9l205 7v-52l-84 -8q-61 -6 -61 -43q0 -12 24 -82l193 -495l225 501q17 34 18 65t-31 46t-106 19l1 49q18 2 46 2l154 -6l143 6q31 0 51 -2l1 -49q-70 -2 -110 -25t-69 -73q-82 -143 -319 -675l-5 -11q-258 -574 -386 -574q-41 0 -66.5 23 t-25.5 59.5t22.5 60t57.5 23.5l53 -5q89 0 258 369l4 8l-246 627q-53 132 -90 161t-109 29h-20zM252 1170q0 42 29 72t69 30t70 -30.5t30 -72t-28.5 -70t-71.5 -28.5t-70.5 28.5t-27.5 70.5zM602 1169.5q0 41.5 30 72t70 30.5t69 -30t29 -72t-27.5 -70.5t-70.5 -28.5 t-71.5 28.5t-28.5 70z" />
<glyph unicode="&#x152;" horiz-adv-x="2079" d="M70 697q0 290 182 503q205 242 563 242q46 0 163 -12.5t187 -12.5l254 4h129l250 6q43 0 98 -4q2 -10 2 -21v-36l-6 -240h-57v13q0 131 -61.5 177t-319.5 46q-132 0 -167.5 -35.5t-35.5 -191.5v-342q84 -7 121 -7l70 2q142 0 191.5 34.5t66.5 127.5h51q-8 -140 -8 -430 h-53q-8 118 -45 155.5t-195 37.5h-45q-47 0 -148 -4h-6v-416q0 -134 44 -177.5t180 -43.5h243q88 0 134.5 38.5t117.5 192.5l58 -10l-84 -289q-64 -4 -181 -4l-473 8q-91 0 -241 -13t-209 -13q-175 0 -297.5 38.5t-231.5 136t-175 244.5t-66 296zM289 739q0 -312 178 -518 q70 -80 163.5 -124t215.5 -44t179.5 68.5t57.5 249.5v671q0 170 -68 248t-216 78q-229 0 -369.5 -172t-140.5 -457z" />
<glyph unicode="&#x153;" horiz-adv-x="1665" d="M94 428q0 196 136.5 336.5t348 140.5t353.5 -184q129 184 319 184q148 0 233 -81t85 -222v-22h-568q-4 -32 -4 -84q0 -174 88 -286t213 -112t250 125l31 -30q-152 -218 -356 -218t-305 181q-153 -181 -357.5 -181t-335.5 128.5t-131 324.5zM268 459.5q0 -179.5 85 -300 t211 -120.5t204 99.5t78 278.5t-84.5 302t-213.5 123t-204.5 -101.5t-75.5 -281zM1012 633l200 2q119 0 159 20t40 71t-46.5 88.5t-122.5 37.5t-140.5 -58.5t-89.5 -160.5z" />
<glyph unicode="&#x178;" horiz-adv-x="1413" d="M-25 1362v61h27l256 -10l252 6h39v-59l-82 -4q-72 -4 -72 -45q0 -32 102 -175t263 -331l323 440q25 35 25 59q0 46 -66 52l-102 10v51q24 2 68 2l168 -4l204 6v-57q-61 -5 -92.5 -18t-63.5 -49q-56 -63 -433 -574v-504q0 -97 38 -127.5t172 -32.5v-59q-317 12 -599 -10 l-1 59q135 8 174 37t39 109v440q0 77 -153 272q-93 116 -170 226q-161 229 -297 229h-19zM433 1725q0 42 29 72t69 30t70 -30.5t30 -72t-28.5 -70t-71.5 -28.5t-70.5 28.5t-27.5 70.5zM783 1724.5q0 41.5 30 72t70 30.5t69 -30t29 -72t-27.5 -70.5t-70.5 -28.5t-71.5 28.5 t-28.5 70z" />
<glyph unicode="&#x2c6;" d="M221 1016l232 350h118l232 -350h-58l-233 211l-233 -211h-58z" />
<glyph unicode="&#x2dc;" d="M225 1065q38 211 197 211q35 0 63 -8l111 -31q28 -8 60.5 -8t53.5 20t35 70h54q-39 -211 -195 -211l-74 12l-108 27q-34 8 -57 8q-61 0 -89 -90h-51z" />
<glyph unicode="&#x2000;" horiz-adv-x="986" />
<glyph unicode="&#x2001;" horiz-adv-x="1972" />
<glyph unicode="&#x2002;" horiz-adv-x="986" />
<glyph unicode="&#x2003;" horiz-adv-x="1972" />
<glyph unicode="&#x2004;" horiz-adv-x="657" />
<glyph unicode="&#x2005;" horiz-adv-x="493" />
<glyph unicode="&#x2006;" horiz-adv-x="328" />
<glyph unicode="&#x2007;" horiz-adv-x="328" />
<glyph unicode="&#x2008;" horiz-adv-x="246" />
<glyph unicode="&#x2009;" horiz-adv-x="394" />
<glyph unicode="&#x200a;" horiz-adv-x="109" />
<glyph unicode="&#x2010;" horiz-adv-x="750" d="M94 385v139h557v-139h-557z" />
<glyph unicode="&#x2011;" horiz-adv-x="750" d="M94 385v139h557v-139h-557z" />
<glyph unicode="&#x2012;" horiz-adv-x="750" d="M94 385v139h557v-139h-557z" />
<glyph unicode="&#x2013;" d="M0 403v103h1024v-103h-1024z" />
<glyph unicode="&#x2014;" horiz-adv-x="2048" d="M0 403v103h2048v-103h-2048z" />
<glyph unicode="&#x2018;" horiz-adv-x="532" d="M115 1136.5q0 101.5 82.5 179.5t234.5 105l12 -47q-106 -33 -155 -76.5t-49 -103.5q0 -47 41 -90q122 -25 122 -90q0 -42 -30.5 -68t-92.5 -26t-113.5 57.5t-51.5 159z" />
<glyph unicode="&#x2019;" horiz-adv-x="532" d="M88 967q105 33 154 76.5t49 103.5q0 49 -39 90q-123 25 -123 90q0 42 31 68t94 26t113.5 -58t50.5 -159.5t-84 -179.5t-234 -104z" />
<glyph unicode="&#x201a;" horiz-adv-x="532" d="M88 -197q105 33 154 76.5t49 104.5q0 47 -39 90q-123 25 -123 90q0 41 31 67.5t94 26.5t113.5 -58t50.5 -159.5t-84 -179.5t-234 -105z" />
<glyph unicode="&#x201c;" horiz-adv-x="901" d="M115 1136.5q0 101.5 82.5 179.5t234.5 105l12 -47q-106 -33 -155 -76.5t-49 -103.5q0 -47 41 -90q122 -25 122 -90q0 -42 -30.5 -68t-92.5 -26t-113.5 57.5t-51.5 159zM483 1136.5q0 101.5 83 179.5t235 105l12 -47q-106 -33 -155.5 -76.5t-49.5 -103.5q0 -47 41 -90 q123 -25 123 -90q0 -42 -31 -68t-93 -26t-113.5 57.5t-51.5 159z" />
<glyph unicode="&#x201d;" horiz-adv-x="901" d="M88 967q105 33 154 76.5t49 103.5q0 49 -39 90q-123 25 -123 90q0 42 31 68t94 26t113.5 -58t50.5 -159.5t-84 -179.5t-234 -104zM457 967q105 33 153.5 76.5t48.5 103.5q0 48 -38 90q-123 25 -123 90q0 42 30.5 68t94 26t113.5 -58t50 -159.5t-83.5 -179.5t-233.5 -104z " />
<glyph unicode="&#x201e;" horiz-adv-x="901" d="M88 -197q105 33 154 76.5t49 104.5q0 47 -39 90q-123 25 -123 90q0 41 31 67.5t94 26.5t113.5 -58t50.5 -159.5t-84 -179.5t-234 -105zM457 -197q105 33 153.5 76.5t48.5 104.5q0 46 -38 90q-123 25 -123 90q0 41 30.5 67.5t94 26.5t113.5 -58t50 -159.5t-83.5 -179.5 t-233.5 -105z" />
<glyph unicode="&#x2022;" horiz-adv-x="1208" d="M307 762q0 123 87 209t209.5 86t209 -86.5t86.5 -208.5t-87.5 -209.5t-210 -87.5t-208.5 87t-86 210z" />
<glyph unicode="&#x2026;" horiz-adv-x="2048" d="M201 102.5q0 50.5 37.5 87.5t89.5 37t88.5 -36t36.5 -88.5t-37 -90t-88 -37.5t-89 38.5t-38 89zM883 102.5q0 50.5 37.5 87.5t89.5 37t88.5 -36t36.5 -88.5t-37 -90t-88 -37.5t-89 38.5t-38 89zM1567 102.5q0 50.5 37.5 87.5t89.5 37t88.5 -36t36.5 -88.5t-37 -90 t-88 -37.5t-89 38.5t-38 89z" />
<glyph unicode="&#x202f;" horiz-adv-x="394" />
<glyph unicode="&#x2039;" horiz-adv-x="602" d="M94 432l387 340l27 -27l-242 -301l242 -311l-25 -24z" />
<glyph unicode="&#x203a;" horiz-adv-x="602" d="M94 135l242 301l-242 312l25 24l389 -323l-387 -340z" />
<glyph unicode="&#x205f;" horiz-adv-x="493" />
<glyph unicode="&#x2122;" horiz-adv-x="1683" d="M244 1260l12 178h440l11 -178h-25q-8 79 -40.5 115t-96.5 36h-21v-426q0 -49 45 -53l31 -2v-27h-248v27l31 2q45 2 45 53v426h-20q-64 0 -97 -36t-41 -115h-26zM788 903v27l34 2q44 4 44 53v371q0 49 -47 53l-31 2v27h183l141 -400l148 400h174v-25l-30 -2 q-46 -4 -46 -53v-373q0 -49 46 -53l30 -2v-27h-236v27l31 2q45 4 45 53v395l-178 -479h-15l-174 479v-395q0 -49 47 -53l31 -2v-27h-197z" />
<glyph unicode="&#xe000;" horiz-adv-x="885" d="M0 0v885h885v-885h-885z" />
</font>
</defs>
</svg>
